<?xml version="1.0" encoding="UTF-8"?>
<!-- Generated by Pixelmator Pro 3.2.3 -->
<svg width="621" height="566" viewBox="0 0 621 566" xmlns="http://www.w3.org/2000/svg" xmlns:xlink="http://www.w3.org/1999/xlink">
    <g id="Group">
        <path id="Path" fill="#000000" stroke="none" d="M 57.58667 239.053345 C 57.654373 239.053345 57.716873 239.053345 57.784592 239.042908 C 58.919998 238.933533 59.758591 237.923157 59.649124 236.78772 C 58.279373 222.391724 56.555374 215.298401 53.560593 211.547729 C 52.201248 209.72998 50.706467 208.563293 49.26886 207.433167 C 47.633377 206.146729 46.091782 204.927979 44.487656 202.688354 C 42.180313 199.401978 44.190781 196.829041 49.680313 191.308105 C 53.909531 187.058105 59.169922 181.766541 60.492859 174.44812 C 61.013672 170.932495 62.154312 168.609558 63.539795 166.94812 C 63.550217 166.97937 63.539795 167.015808 63.550217 167.047058 C 67.841934 183.520386 80.315536 189.453735 88.910202 186.744385 C 97.561279 183.822571 106.936874 172.755066 103.795532 158.452393 C 103.514282 157.176392 103.139282 155.988831 102.717407 154.858704 C 103.894485 155.233704 105.149673 155.514954 106.170486 156.103455 C 108.748611 157.645081 114.092346 163.363892 119.253815 168.879456 C 121.055939 170.806519 122.878876 172.754395 124.613159 174.572144 C 127.441284 177.608521 130.493408 180.572144 132.941284 182.936646 L 138.800629 188.572144 C 139.623535 189.358582 140.941284 189.337769 141.727692 188.514832 C 142.524567 187.686707 142.493317 186.374146 141.67038 185.587769 L 135.831848 179.973206 C 133.436005 177.65033 130.430786 174.738831 127.634003 171.733643 C 125.884003 169.910706 124.07666 167.973206 122.290253 166.05658 C 116.430939 159.801392 111.378784 154.389893 108.284927 152.551208 C 105.868271 151.134583 103.055725 150.280457 100.071335 149.848145 C 98.4776 147.483643 96.612915 145.478455 94.602524 143.764832 C 97.545181 142.327393 100.336914 140.634583 102.763992 139.066956 C 103.394211 138.634705 104.024414 138.223206 104.654663 137.80658 C 104.784866 137.848206 104.951538 137.90033 105.08696 137.936768 C 107.816147 138.759705 110.165085 139.473145 111.576553 140.077454 C 113.91507 141.004517 114.373474 142.400391 115.20163 145.452393 C 116.529755 150.389832 118.347504 157.150208 132.20163 163.264343 C 132.477661 163.389343 132.758911 163.436218 133.040161 163.436218 C 133.837036 163.436218 134.597504 162.972717 134.941223 162.201843 C 135.404785 161.154968 134.930817 159.931091 133.88916 159.46228 C 121.842224 154.144531 120.38916 148.717468 119.211823 144.363586 C 118.368073 141.212524 117.487823 137.952148 113.180634 136.243896 C 112.19104 135.811584 110.816086 135.358459 109.258743 134.868958 C 111.185806 133.691833 112.956635 132.655334 114.378479 131.822021 L 115.487854 131.165771 C 124.347198 126.535461 126.196136 125.061646 125.883728 122.811646 C 125.592072 120.738708 123.430664 120.280396 121.138916 119.806396 C 120.456635 119.665771 119.72226 119.509521 118.857727 119.285583 C 115.498383 118.582458 113.592133 117.441833 112.998383 115.827209 C 112.13382 113.405334 113.97757 109.16571 118.201447 103.894897 C 118.915009 103.009521 118.774384 101.697083 117.87854 100.983459 C 116.998322 100.269897 115.680664 100.420959 114.967072 101.306396 C 109.581604 108.019958 107.664932 113.228271 109.092148 117.227722 C 110.732803 121.821472 116.196259 122.967285 117.894257 123.32666 C 118.675507 123.524536 119.430664 123.691223 120.123474 123.842285 C 118.863068 124.63916 116.795319 125.811096 113.462006 127.550537 L 112.269318 128.248474 C 110.097427 129.519287 107.107834 131.269287 103.998489 133.25885 C 99.769302 131.967163 94.748489 130.316162 89.52916 128.055786 C 91.221817 124.852722 93.320908 125.9151 93.810364 118.894348 C 94.216614 114.290161 94.466614 110.206848 94.607239 107.238037 C 94.982239 104.373535 95.154129 102.6026 95.128067 102.50885 C 99.284348 102.75885 101.888474 99.6651 103.268738 95.373413 C 104.40416 92.461914 104.80513 89.024475 104.836472 85.685913 C 105.622925 84.987976 106.352066 84.3526 107.201004 83.586975 C 112.97702 78.659912 119.518738 73.076599 125.966339 71.399536 C 137.424744 68.04541 143.663666 69.133911 149.701019 70.196411 L 151.925018 70.576599 C 153.070831 70.790161 154.122864 69.993286 154.305267 68.857788 C 154.487579 67.7276 153.721954 66.659973 152.586456 66.477539 L 150.4198 66.102539 C 144.221954 65.024414 137.206207 63.790039 124.857147 67.394226 C 117.674866 69.269165 110.851807 75.008728 104.550476 80.394226 C 103.055664 72.50354 97.654602 67.701538 91.071793 70.404602 C 91.019714 70.430664 90.962418 70.47229 90.905136 70.498352 C 90.998886 69.670227 91.061386 68.94104 91.170761 68.050476 L 93.39476 55.847412 C 94.202072 51.175537 97.186508 49.566223 101.696899 47.128601 L 103.176102 46.305725 C 108.228226 43.363037 114.514618 39.691162 121.160095 29.945679 C 121.805939 28.997803 121.555939 27.716492 120.61322 27.06543 C 119.686127 26.424805 118.384003 26.65918 117.732941 27.612305 C 111.618408 36.581116 106.019348 39.841492 100.706284 42.945679 L 99.71669 43.476929 C 94.956299 46.055054 90.451096 48.487305 89.305237 55.117554 L 87.065628 67.419678 C 86.784378 69.727051 86.550003 71.815552 86.378128 73.716675 C 84.669861 75.378113 83.107346 77.424927 81.971863 79.799988 C 79.862534 84.273987 79.68013 89.956238 82.4198 95.216003 C 78.070862 98.50238 73.6698 103.684753 70.513535 109.502625 C 69.966629 110.5495 69.518738 111.627686 69.070862 112.705688 C 65.779129 107.783875 63.977127 102.117188 63.680191 95.497742 C 63.555191 82.200806 61.914597 74.784363 58.331253 71.440369 C 56.695801 69.903992 54.622986 69.200745 52.273926 69.341431 C 45.279129 69.763306 35.539261 78.377869 28.055252 90.768127 C 27.466721 91.747314 27.779221 93.023315 28.753174 93.611816 C 29.742752 94.210815 31.008377 93.893127 31.596909 92.91394 C 39.081314 80.528442 47.784912 73.757935 52.514236 73.476624 C 53.759033 73.403687 54.696518 73.716187 55.493454 74.471375 C 58.09758 76.903625 59.415298 83.794312 59.524643 95.616699 C 59.915268 104.163635 62.628784 111.398071 67.555847 117.502075 C 66.8423 120.918701 66.910019 124.361389 68.508972 127.647888 C 73.24855 137.720825 75.253769 135.022827 75.040161 139.460449 C 74.748489 139.700012 74.456833 139.981262 74.170364 140.241699 C 71.441177 138.970886 68.597458 137.444763 65.743301 135.762512 L 64.24852 134.8927 C 57.238113 130.793762 50.623169 126.903137 45.327164 129.241638 C 38.259445 132.319763 34.316772 141.845764 30.155167 151.924316 C 28.009323 157.189941 25.764511 162.632568 22.972916 167.476318 C 15.48851 180.773254 6.670242 182.850952 2.07692 182.892334 C 0.941498 182.907959 0.019577 183.845459 0.029984 184.991272 C 0.04039 186.126648 0.967468 187.038208 2.102921 187.038208 L 2.128952 187.038208 C 7.613358 186.970459 18.082291 184.616333 26.57695 169.522156 C 29.488419 164.459656 31.785217 158.897095 34.009216 153.516846 C 37.842545 144.235657 41.478027 135.454163 47.009216 133.047485 C 50.352951 131.552734 56.358154 135.089111 62.175888 138.479797 L 63.6707 139.349548 C 66.024826 140.745422 68.509216 142.135986 70.978027 143.365173 C 66.837357 147.828796 63.15509 153.927673 63.097763 161.823853 C 59.40509 164.563416 57.196671 168.401978 56.394699 173.761292 C 55.316574 179.750916 50.759216 184.329041 46.738419 188.370605 C 41.733215 193.396606 36.561356 198.599854 41.097763 205.067993 C 43.045609 207.807556 44.988419 209.333557 46.696671 210.677307 C 48.040421 211.72937 49.201889 212.646118 50.274826 214.078369 C 52.696671 217.10437 54.26442 224.01062 55.519608 237.166382 C 55.628983 238.244507 56.535233 239.046631 57.587357 239.046631 Z M 99.507996 136.214661 C 97.013199 137.792786 93.976807 139.516785 90.778809 140.886536 C 89.617355 140.079224 88.466263 139.318787 87.367325 138.605347 C 87.591293 136.829346 87.830872 134.907471 88.122543 132.657471 C 88.1642 132.417908 88.221497 132.282471 88.263168 132.058533 C 92.221573 133.740784 96.049576 135.100098 99.50798 136.214783 Z"/>
        <path id="path1" fill="#000000" stroke="none" d="M 209.813324 82.06665 L 214.334137 80.998962 C 217.802948 80.155212 221.964386 79.150024 224.063324 78.998962 C 222.969604 81.75415 226.089325 84.373901 231.57373 88.978149 C 232.641449 89.874023 233.896637 90.978149 235.089325 92.00415 C 234.755981 92.2854 234.391388 92.608337 234.162262 92.832275 C 228.896637 89.389587 219.990234 89.827087 213.61026 94.582275 C 204.750946 101.170837 210.521729 114.035583 216.183197 120.540955 C 222.047729 127.103455 229.474945 128.655457 236.000519 124.08252 C 241.161987 120.400269 237.802643 109.655884 236.995331 103.066528 C 237.318237 102.81134 237.578644 102.649902 237.818237 102.524902 C 238.839081 104.649963 240.28183 106.764465 241.698486 108.821838 C 243.359955 111.217651 245.073456 113.691528 245.714111 115.748901 C 246.401581 117.946716 244.745361 120.925964 242.828613 124.368591 C 242.021332 125.821655 241.177582 127.337402 240.396362 129.024902 C 239.151581 132.087402 237.922363 135.389404 237.87558 139.264465 C 237.87558 143.248901 238.912018 147.155151 241.037018 151.212341 C 241.401611 151.915466 242.12558 152.321716 242.870361 152.321716 C 243.193268 152.321716 243.526611 152.248779 243.833893 152.082153 C 244.854736 151.550903 245.234985 150.300903 244.703705 149.285217 C 242.896362 145.832153 242.021454 142.55603 242.021454 139.290405 C 242.06311 136.170654 243.130829 133.285217 244.193268 130.686279 C 244.896393 129.186279 245.693268 127.748779 246.458893 126.378906 C 248.740112 122.27478 250.891144 118.399719 249.667145 114.509216 C 248.83902 111.847717 246.937958 109.108154 245.104614 106.451843 C 244.401489 105.43103 243.687958 104.394531 243.036896 103.384155 C 243.781708 103.55603 244.620239 103.748718 245.656616 103.946655 C 246.187866 104.040405 246.687866 103.998718 247.193024 104.003906 C 255.781586 114.092468 261.11972 125.665283 261.3237 135.07196 C 261.349731 136.202148 262.271606 137.103149 263.396606 137.103149 L 263.438263 137.103149 C 264.584137 137.077087 265.495636 136.134399 265.469482 134.988586 C 265.261139 125.196838 260.084015 113.395264 251.729492 103.004578 C 252.599274 102.572327 253.411743 102.015015 254.177368 101.363953 C 258.698151 103.910889 263.760712 105.337952 269.750702 105.447266 C 277.177765 105.514954 277.953766 108.676453 278.177765 112.431641 C 278.209015 113.723328 278.16214 115.061951 278.110077 116.379517 C 277.969452 119.973267 277.828827 123.681641 279.464203 126.384705 C 279.854828 127.030579 280.531891 127.389954 281.240204 127.389954 C 281.604767 127.389954 281.979767 127.291016 282.307892 127.093079 C 283.287079 126.504517 283.599579 125.228516 283.011017 124.249329 C 282.016235 122.608643 282.141235 119.520142 282.255829 116.541077 C 282.307892 115.129578 282.365204 113.697327 282.323517 112.249329 C 282.057861 107.593079 280.464203 101.390015 269.81311 101.296265 C 264.860016 101.202515 260.714203 100.150452 256.984985 98.233704 C 258.552704 95.926392 259.729767 93.166016 260.453766 90.353455 C 268.110016 94.634644 274.912445 99.249329 278.016449 88.098267 C 279.052887 88.71283 280.021637 89.468018 280.870575 90.473206 C 282.813232 92.770142 284.578857 95.650269 286.282013 98.421082 L 286.85498 99.358582 C 287.860199 100.978271 288.85498 102.546021 289.79245 103.832581 C 290.927856 105.723206 292.006012 107.233643 293.052826 108.421082 C 295.865356 111.749207 299.323608 112.915894 302.344574 113.629333 C 302.500824 113.660583 302.66748 113.686646 302.818512 113.686646 C 303.756012 113.686646 304.61026 113.040833 304.834106 112.092896 C 305.099731 110.973145 304.412231 109.863708 303.292511 109.598145 C 299.901855 108.801208 297.849854 107.681458 296.188385 105.717834 C 295.282135 104.686584 294.355072 103.379333 293.250946 101.545959 C 292.261353 100.191833 291.323853 98.707458 290.381195 97.191833 L 289.808258 96.264771 C 288.027069 93.353333 286.172821 90.348083 284.032257 87.811707 C 282.516693 86.004395 280.620819 84.790894 278.5896 83.889832 C 278.579193 81.780518 278.167725 79.650208 277.011475 77.764771 C 278.032318 73.118896 279.975067 69.702209 282.870819 67.426208 C 286.469727 64.868896 291.266693 64.176208 296.756134 63.608521 C 301.902008 63.681396 307.209198 63.780396 311.662811 61.676208 C 317.079468 59.504395 320.558685 54.499146 322.298248 46.369568 C 322.537842 45.249756 321.82431 44.145569 320.704559 43.916504 C 319.610809 43.676941 318.490936 44.390442 318.251465 45.510254 C 316.350372 54.395691 312.699341 56.801941 310.011871 57.879944 C 306.313995 59.624756 301.688934 59.541443 296.82959 59.473694 L 296.39209 59.463257 L 296.261871 59.473694 C 290.241089 60.129944 284.886963 60.916382 280.397919 64.109192 C 277.288574 66.546631 275.163483 69.989441 273.793793 74.27063 C 272.616699 73.385193 271.288574 72.645569 269.767792 72.202881 C 263.345917 70.286255 254.309082 73.655945 257.158447 81.103943 C 257.158447 81.103943 256.559479 80.921692 255.642822 80.728943 C 256.679291 73.958191 254.496979 64.640991 250.92923 61.332947 C 247.554291 58.306946 247.278168 57.082947 247.278168 56.786011 C 247.267731 56.369385 248.033356 55.640198 248.778168 54.942322 L 249.293793 54.452698 C 252.663544 51.16095 255.61673 46.687134 248.048981 35.312683 C 247.403168 34.349182 246.121948 34.099182 245.168732 34.739807 C 244.215607 35.380432 243.9552 36.656433 244.595825 37.620056 C 250.892731 47.083679 248.397949 49.526306 246.397949 51.48407 L 245.923981 51.932007 C 244.595856 53.187195 243.095856 54.603821 243.127075 56.833069 C 243.153107 59.004883 244.663452 61.280884 248.137451 64.390381 C 250.554108 66.630005 252.54892 74.713318 251.512421 80.469055 C 249.403076 80.541992 247.022797 80.833618 244.777985 81.922119 C 243.939453 82.396057 243.350922 82.791931 242.845734 83.166931 C 239.866547 77.635681 237.012421 70.099182 235.231201 59.828247 C 234.252045 53.927185 228.418671 54.260498 223.29892 54.56781 L 221.54892 54.666809 C 214.877075 54.651184 208.824921 54.010559 202.308929 46.302246 C 201.569336 45.432495 200.261993 45.333496 199.387054 46.052246 C 198.517242 46.79187 198.397461 48.099182 199.137054 48.974121 C 207.423462 58.771057 215.913055 58.797058 221.647705 58.807434 L 223.548798 58.698059 C 229.548798 58.349121 230.840546 58.645996 231.158112 60.515808 C 232.939331 70.76062 236.043579 79.53717 240.142548 86.630493 C 239.751923 87.291931 239.147736 88.099304 238.137329 89.135681 C 236.803986 87.984619 235.423706 86.771179 234.236237 85.776367 C 231.678925 83.635681 228.81958 81.229431 228.132111 80.120056 C 228.897736 78.583679 228.897736 77.281555 228.116486 76.229431 C 226.314362 73.807556 221.97583 74.854492 213.356476 76.942993 L 208.861694 78.005493 C 200.101318 80.07843 190.168365 82.427368 181.71637 78.510681 C 180.695526 78.021118 179.445587 78.484619 178.961151 79.521118 C 178.481995 80.557556 178.929901 81.786682 179.971588 82.276306 C 189.721588 86.817871 200.387573 84.302307 209.815582 82.067993 Z"/>
        <path id="path2" fill="#000000" stroke="none" d="M 376.600037 109.493347 C 376.672913 109.493347 376.740662 109.493347 376.80835 109.48291 C 376.823975 109.48291 385.80835 108.555847 396.439026 107.758911 C 399.366028 107.534973 402.386902 107.368286 405.29834 107.201599 C 413.319153 106.753723 420.241028 106.363098 423.601013 105.003784 C 426.257263 103.941223 428.720764 102.232971 430.944763 100.118286 C 433.772888 100.248474 436.486328 99.935974 439.033264 99.321411 C 438.163513 103.113159 437.595764 107.029663 437.3302 110.753662 C 437.319763 110.753662 437.319763 110.764099 437.314575 110.764099 C 434.897888 112.649536 432.809387 114.264099 431.434326 115.061035 C 429.319763 116.415161 428.033264 115.946411 425.111389 114.722473 C 420.392578 112.722473 413.918701 109.977661 400.278015 117.071411 C 399.267639 117.592224 398.866577 118.847412 399.397827 119.868347 C 399.772827 120.571472 400.491577 120.988159 401.241577 120.988159 C 401.564514 120.988159 401.88739 120.915222 402.194641 120.753784 C 414.10614 114.566284 419.309387 116.779785 423.492004 118.545471 C 426.50238 119.821533 429.617065 121.144409 433.590942 118.61322 C 434.512817 118.08197 435.716003 117.212158 437.03363 116.217346 C 437.018005 116.498596 436.991943 116.821533 436.981506 117.097534 C 436.872131 119.529846 436.788818 121.628723 436.585693 123.20166 C 435.455505 133.206909 435.679443 135.727661 437.788818 136.680359 C 439.773193 137.607422 441.356506 135.883484 443.163757 133.919922 C 445.148132 131.76886 447.861633 128.826233 450.413757 129.284485 C 452.096008 129.591797 454.762695 131.534485 457.856384 139.081421 C 458.189758 139.888733 458.960571 140.367859 459.773071 140.367859 C 460.028259 140.367859 460.293884 140.315796 460.559509 140.211609 C 461.622009 139.779297 462.116882 138.570923 461.694946 137.508545 C 458.59082 129.940796 455.142822 125.925232 451.14801 125.206421 C 446.366821 124.310547 442.611633 128.409485 440.111633 131.107483 C 440.096008 131.123108 440.080383 131.138733 440.059509 131.159546 C 440.111633 129.680359 440.273071 127.352234 440.689758 123.701172 C 440.898071 122.076111 440.997009 119.857422 441.122009 117.289673 C 441.179321 115.919983 441.273071 114.39386 441.356384 112.883423 C 444.892822 110.154236 449.174133 106.940796 453.991882 103.971985 C 455.392944 106.878235 453.596008 107.904236 458.611633 111.747986 C 461.939758 114.294922 464.96051 116.404236 467.158508 117.873047 C 469.387756 119.341858 470.668945 120.211548 470.773071 120.227173 C 466.632385 125.852234 473.064819 131.940796 479.851196 134.768494 C 480.142883 135.929932 480.439758 137.117432 480.762634 138.336243 C 482.356384 144.383179 484.163757 151.237305 483.523071 156.830872 C 482.278259 168.336121 479.642761 173.716248 476.861633 179.398926 L 476.231384 180.700989 C 475.726135 181.732239 476.158447 182.966553 477.184509 183.461365 C 477.476135 183.60199 477.783447 183.669739 478.090759 183.669739 C 478.861572 183.669739 479.601135 183.237427 479.955261 182.497864 L 480.58551 181.211365 C 483.39801 175.456177 486.309509 169.503113 487.637634 157.284729 C 488.366821 150.930603 486.450134 143.680725 484.767883 137.274048 C 484.658508 136.883423 484.575195 136.503235 484.471008 136.11261 C 491.814758 137.33136 498.293701 133.956299 499.049683 127.92511 L 499.049683 127.857422 C 501.263306 128.935547 503.37262 130.013672 505.096619 130.893799 C 506.940369 131.831299 508.773682 132.779297 510.570618 133.664612 C 513.56543 135.133423 513.856995 137.091675 514.226868 141.378235 C 514.648743 146.247925 515.232117 152.925171 522.716492 160.096863 C 523.555054 160.893738 524.846741 160.867737 525.653992 160.039612 C 526.440369 159.211487 526.419617 157.898926 525.586243 157.112549 C 519.221741 151.013611 518.768494 145.706238 518.351868 141.024536 C 517.987244 136.842285 517.612244 132.519348 512.403992 129.956787 C 510.622742 129.076599 508.794617 128.139038 506.976929 127.201599 C 503.929993 125.649475 501.185181 124.274536 498.633179 123.055725 C 497.081055 117.685974 491.940491 112.326538 483.341187 112.743164 C 482.742249 107.456787 481.242249 100.456787 477.815186 95.123169 C 483.075562 94.690918 488.440247 95.420044 493.752502 97.920105 C 507.101868 104.310791 515.596497 104.347168 519.679199 98.050354 C 524.215576 91.065918 520.564575 78.722351 517.996887 71.9823 C 517.580261 70.914612 516.387573 70.372986 515.325012 70.789612 C 514.257324 71.195862 513.726135 72.398987 514.121887 73.471924 C 517.970886 83.529236 518.752197 91.87323 516.194885 95.794556 C 515.189636 97.351868 512.163635 102.117493 495.528198 94.174805 C 488.465637 90.84668 481.408203 90.242554 474.653503 91.263367 C 472.565002 89.362305 470.023254 87.97699 466.872314 87.539368 C 456.710876 86.143494 457.387939 89.039368 454.268188 86.487305 C 454.252563 86.179993 454.216125 85.831055 454.2005 85.518555 C 456.872375 84.122681 459.85675 82.799744 462.820251 81.50293 C 470.908752 77.966553 478.54425 74.622681 480.382874 69.15918 C 482.414124 62.305054 478.294373 54.241882 473.52356 44.89917 C 471.117249 40.185608 468.622498 35.315857 466.726624 30.259216 C 464.434875 23.441467 463.606873 17.597717 464.263 12.904541 C 464.867188 8.696289 466.601563 5.78479 467.945251 4.086792 C 468.658813 3.190979 468.507751 1.888916 467.611938 1.175354 C 466.73175 0.472229 465.414124 0.618042 464.7005 1.513855 C 463.033813 3.612793 460.893127 7.196167 460.153564 12.326416 C 459.398376 17.670166 460.294189 24.149353 462.799438 31.654419 C 464.804626 37.003357 467.351563 41.982544 469.820251 46.794434 C 474.184753 55.346558 477.960876 62.73175 476.434753 67.914429 C 475.200378 71.570679 468.054504 74.69043 461.153381 77.711365 C 458.65863 78.805115 456.143005 79.919617 453.767944 81.096802 C 453.002319 75.503052 451.028381 69.117615 445.262756 64.456787 C 445.476318 60.76416 444.450256 56.691223 440.491943 51.831726 C 436.366882 46.498413 435.590881 39.472412 434.90863 33.258423 C 434.320068 28.180298 433.325256 19.674438 424.767944 19.029053 C 421.267944 18.747803 418.866882 19.211365 416.710632 19.612427 C 414.861694 19.961365 413.278381 20.268677 411.30957 20.044678 C 406.538757 19.523865 398.971008 16.221741 385.184204 8.638428 C 384.189392 8.091553 382.929016 8.44574 382.371704 9.450928 C 381.814392 10.456177 382.189392 11.716553 383.194641 12.263489 C 397.678589 20.237488 405.445251 23.570801 410.877258 24.169739 C 413.439819 24.435364 415.481384 24.060364 417.471008 23.690552 C 419.471008 23.325989 421.502197 22.961426 424.455383 23.169739 C 428.346069 23.466614 429.882507 26.03949 430.793945 33.737488 C 431.49707 40.143738 432.37207 48.112122 437.241821 54.420166 C 439.507385 57.201355 440.601135 59.539856 441.002197 61.711853 C 440.96051 61.696228 440.92926 61.65979 440.887634 61.644165 C 425.955627 54.102539 412.804993 60.149353 409.600952 68.404541 C 407.975891 72.508728 407.908264 78.300415 409.600952 83.87793 C 411.418701 89.393494 415.298828 94.44043 421.778015 97.847229 C 423.007202 98.451416 424.231079 98.925354 425.434265 99.284729 C 424.32489 100.050354 423.184265 100.727356 422.007202 101.201355 C 419.278015 102.305542 412.028015 102.711792 405.023254 103.102417 C 402.080566 103.269104 399.018005 103.440979 396.070129 103.664917 C 385.377502 104.461853 376.33551 105.399353 376.33551 105.399353 C 375.189636 105.513916 374.366699 106.53479 374.486572 107.670166 C 374.64801 108.701416 375.543884 109.493103 376.601074 109.493103 Z M 441.865295 107.274536 C 442.203918 104.107849 442.677856 100.92041 443.542419 97.951599 C 444.860107 97.493286 446.141296 97.014099 447.323608 96.555725 C 448.511108 97.701599 449.776672 98.930664 451.271484 100.373474 C 451.365234 100.467224 451.396484 100.524536 451.469421 100.607849 C 447.964172 102.810913 444.734985 105.113037 441.865234 107.274536 Z"/>
        <path id="path3" fill="#000000" stroke="none" d="M 618.919983 474.680023 C 614.821045 472.976929 603.529297 470.325836 586.903992 482.435181 C 583.185242 485.273712 579.497742 488.294525 575.893616 491.25293 L 573.336243 493.351837 C 564.398743 500.404022 555.049561 507.373199 548.73761 506.925201 C 545.013611 506.685638 541.633484 501.117889 538.05011 495.216919 L 537.044922 493.565887 C 535.64386 491.232544 534.138672 488.83667 532.55011 486.581451 C 538.034485 484.847076 544.232422 481.935577 548.534119 476.034546 C 548.96637 475.414764 549.346619 474.706421 549.74762 474.029327 C 550.570557 473.888702 551.388367 473.737671 552.242432 473.466827 C 553.992432 472.904327 555.643555 472.065765 557.570618 470.696045 L 558.075867 470.196045 C 559.263367 469.034576 560.732117 467.597076 562.117432 465.706421 C 565.320496 461.310547 570.513245 459.044952 575.538757 456.852295 C 577.262756 456.097076 578.950195 455.357513 580.460632 454.5867 C 585.158447 452.253387 593.038757 448.347076 591.74176 440.092041 C 591.21051 436.399384 589.898132 433.966949 588.757385 431.826416 C 587.861572 430.175385 587.090759 428.737885 586.658447 426.717072 C 585.731384 423.347382 586.278259 418.107758 587.27301 408.581085 C 587.611633 405.336304 588.012634 401.59668 588.424072 397.232178 C 588.533447 396.086304 587.694885 395.081085 586.549133 394.976959 C 585.377258 394.961334 584.398132 395.716553 584.293945 396.851898 C 583.887695 401.200836 583.486633 404.930023 583.158508 408.154022 C 582.064758 418.508179 581.523132 423.700684 582.637695 427.700684 C 583.158508 430.190308 584.15332 432.023651 585.111755 433.799652 C 586.200256 435.815216 587.226257 437.721466 587.658691 440.71109 C 588.34613 445.14856 585.018005 447.71109 578.601318 450.89856 C 577.142883 451.643341 575.538818 452.341217 573.898254 453.065216 C 568.622253 455.362152 562.648254 457.976685 558.788879 463.278809 C 557.601379 464.877777 556.325378 466.143341 555.195129 467.242432 L 554.945129 467.523682 C 554.018066 468.169525 553.059753 468.554932 552.117004 468.961151 C 556.778503 451.554474 548.268127 441.237152 539.023376 440.21582 C 535.299316 439.77832 530.637878 440.580414 526.330627 442.49704 C 524.138 443.444946 522.164001 444.767822 520.164001 446.231415 C 518.096252 447.642853 516.221313 449.361694 514.679626 451.450195 C 513.179626 453.377289 512.080627 455.773163 511.111877 458.377289 C 510.622253 459.637695 510.28894 460.882477 510.075378 462.101288 C 509.07019 461.132538 508.169128 460.116852 507.476501 458.997162 C 506.408752 457.25235 505.205627 452.87207 503.919128 448.226349 C 503.179565 445.56485 502.382751 442.69516 501.502502 439.830475 C 499.57019 433.424194 497.903503 428.283539 496.07019 424.070465 L 493.085815 417.169434 C 492.627502 416.122528 491.403503 415.643433 490.356628 416.091309 C 489.309753 416.549652 488.82019 417.768341 489.278503 418.820465 L 492.262878 425.721558 C 494.137817 430.002777 495.898376 435.601807 497.549255 441.054901 C 498.419067 443.883026 499.200378 446.711151 499.929565 449.33609 C 501.408752 454.695435 502.570251 458.919434 503.945129 461.174652 C 505.398193 463.528778 507.460754 465.58609 509.87738 467.362091 C 510.101379 470.148468 510.78363 472.794342 511.75238 475.24234 C 507.611694 474.950684 503.40863 474.924652 499.439819 475.075684 L 499.049194 474.685059 C 497.023193 472.67984 495.273193 470.945465 494.361755 469.784027 C 492.804382 467.86734 493.106506 466.622528 493.997131 463.752808 C 494.236755 462.955933 494.50238 462.133057 494.736755 461.138275 C 495.601318 456.622681 495.549255 450.185181 487.445007 440.383575 C 486.721008 439.513794 485.413757 439.373169 484.523132 440.107544 C 483.642883 440.836761 483.517883 442.138763 484.24707 443.029419 C 491.24707 451.498199 491.351196 456.742767 490.674133 460.269409 C 490.481445 461.076691 490.241882 461.821564 490.02832 462.524628 C 489.09082 465.54541 488.122009 468.680908 491.12207 472.378754 C 491.762695 473.191284 492.731384 474.212067 493.835632 475.321411 C 490.851257 475.477661 488.236755 475.587036 486.611633 475.54538 C 476.043884 474.904755 473.752319 475.222443 472.923645 477.347534 C 472.142395 479.290192 473.788269 480.665253 475.684021 482.269379 C 476.225708 482.727692 476.829895 483.222504 477.460022 483.811005 C 479.335022 485.462036 481.225647 487.409912 481.038147 489.420319 C 480.866272 491.909912 477.064148 494.748444 470.59552 497.201538 C 469.527832 497.607788 468.996582 498.800446 469.392395 499.873383 C 469.798645 500.935913 470.975769 501.482697 472.06427 501.076508 C 480.47052 497.88382 484.871582 494.055695 485.163208 489.769165 C 485.527771 485.961823 482.855896 483.050385 480.236145 480.743164 C 479.72052 480.269196 479.215271 479.836914 478.736145 479.430664 C 480.371582 479.420258 482.736145 479.487946 486.40802 479.706696 C 488.324646 479.737946 491.079895 479.639008 494.246521 479.472321 C 495.340271 479.415039 496.595459 479.362946 497.788147 479.316071 C 500.918396 482.44632 504.564148 486.258759 508.090271 490.649414 C 504.97052 492.576508 503.850647 490.915039 499.788147 496.441162 C 497.074524 500.055664 494.767334 503.321411 493.126648 505.717163 C 491.501587 508.097412 490.506897 509.560883 490.444397 509.639008 C 484.272522 505.737946 477.574646 512.649414 473.584412 519.654663 C 472.698975 519.84729 471.824036 520.050415 470.855164 520.243164 C 467.480286 521.029663 463.464539 521.920166 459.422913 522.540039 C 455.053162 522.935913 451.548035 522.857788 448.693726 522.300537 C 443.209351 521.331787 438.620789 519.75354 434.251038 517.336914 C 430.907349 515.513916 428.459351 513.670288 425.448914 511.404633 C 424.553101 510.732758 423.448914 511.050446 422.751038 511.961914 C 422.063538 512.873413 422.454163 514.336914 423.365662 515.024414 C 425.9646 516.97229 428.652039 518.998413 432.25116 520.97229 C 437.021912 523.602539 442.016724 525.321289 447.939148 526.363037 C 451.142151 526.982788 455.006836 527.086914 459.913147 526.644287 C 464.095398 525.998413 468.059021 525.128662 471.40271 524.352539 C 468.949646 531.967041 471.585022 538.811157 478.569397 539.477905 C 478.642273 539.488281 478.736023 539.467407 478.803772 539.477905 C 477.668335 541.035156 476.532959 542.623779 475.371521 544.180908 C 473.579773 546.613159 471.788147 549.035034 470.236023 551.264282 C 467.449646 554.722656 464.220398 554.821533 459.345398 554.972534 L 456.814148 555.097534 C 451.246399 555.436035 444.329773 555.863159 434.819519 561.477783 C 433.829895 562.061157 433.507019 563.32666 434.090332 564.316284 C 434.47052 564.972534 435.168457 565.337158 435.871521 565.337158 C 436.225647 565.337158 436.59552 565.238159 436.923584 565.045532 C 445.574646 559.941406 451.950256 559.555908 457.068909 559.238159 L 459.47522 559.123535 C 464.621033 558.967285 469.480408 558.82666 473.537903 553.764282 C 475.157593 551.456909 476.928528 549.061157 478.699341 546.660156 C 480.605591 544.071533 482.491028 541.467407 484.267029 538.904907 C 490.996277 537.045532 498.07373 531.087158 498.220398 521.998169 C 504.387085 520.930542 512.715027 518.196045 518.804382 513.591919 C 519.361694 519.440918 518.148132 525.133545 515.080383 530.717285 C 508.715881 542.35791 506.65332 549.30127 508.15332 553.930664 C 508.851257 556.086914 510.335632 557.711792 512.559631 558.774414 C 514.304382 559.586914 516.481506 559.987915 519.070007 559.987915 C 521.221069 559.987915 523.642944 559.711914 526.356384 559.15979 C 531.575195 557.899414 537.846008 555.482666 544.501709 552.165039 C 545.532959 551.649414 545.944397 550.404541 545.428772 549.383789 C 544.907959 548.352539 543.678772 547.956665 542.647644 548.456665 C 536.267334 551.633789 530.303894 553.941162 525.459595 555.107788 C 520.558533 556.102539 516.589905 556.071289 514.324158 555.014038 C 513.136658 554.456787 512.433472 553.701538 512.09491 552.649536 C 511.016846 549.347412 513.18866 542.816162 518.714661 532.706787 C 522.68866 525.482788 523.860535 517.982788 522.433472 510.274811 C 524.740784 507.675903 526.381348 504.701904 526.730408 501.191498 C 527.798157 490.602936 524.537781 491.873779 527.00647 488.09256 C 527.397095 487.993622 527.834534 487.884247 528.251221 487.785278 C 530.058533 490.181152 531.829407 492.878998 533.527222 495.717529 L 534.532471 497.368622 C 538.688721 504.212311 542.610596 510.675934 548.5271 511.05661 C 548.735413 511.067017 548.959412 511.067017 549.172913 511.067017 C 556.922913 511.067017 566.255615 504.228485 575.954285 496.583008 L 578.553223 494.457977 C 582.120911 491.520477 585.761475 488.525665 589.402161 485.744354 C 604.303467 474.911011 613.932861 477.093292 617.36084 478.494354 C 618.397278 478.952667 619.631592 478.426636 620.063904 477.374542 C 620.470154 476.332886 619.975342 475.124542 618.91803 474.681885 Z M 503.419983 479.143585 C 506.873047 479.091522 510.378418 479.143585 513.675232 479.497772 C 514.30542 480.732147 514.935608 481.935211 515.539734 483.039337 C 514.388733 484.383087 513.14386 485.825775 511.68042 487.513336 C 511.508484 487.695648 511.388733 487.789398 511.222107 487.950836 C 508.607544 484.685272 505.935669 481.742584 503.419922 479.143524 Z"/>
        <path id="path4" fill="#000000" stroke="none" d="M 370.17334 479.040009 C 368.001465 478.956665 365.933716 478.915009 364.048248 478.883759 C 361.485718 478.831665 358.475342 478.774384 356.683716 478.560822 C 356.990997 478.102509 357.17334 477.581665 357.204559 477.008698 C 357.360809 474.43576 354.631622 471.300415 348.470184 464.446167 C 348.235809 464.180542 347.954559 463.87326 347.714966 463.602417 C 348.313934 463.352417 348.944122 463.081573 349.365997 462.878448 C 354.683746 467.342041 364.855347 468.618042 374.18866 466.0867 C 386.855347 462.144043 387.303223 448.206696 383.84491 440.0867 C 382.12616 436.029388 378.636658 433.0867 374.21991 431.633667 C 369.8396 430.263916 364.422943 430.180573 358.522552 431.664917 C 349.355865 434.180511 350.25174 445.752899 349.05896 452.248901 C 348.27771 452.56662 347.756866 452.686401 347.235992 452.665558 C 346.564117 450.06665 345.220428 447.4729 343.892303 445.06665 C 342.532959 442.592651 341.12146 440.040649 340.923462 438.040649 C 340.631805 435.801025 344.381866 433.019867 348.350555 430.061432 C 349.918304 428.889557 351.579742 427.665558 353.194305 426.327026 C 360.032806 420.733307 366.756958 413.707306 364.73587 403.857697 C 364.501495 402.737915 363.444214 402.050385 362.282806 402.248383 C 361.163055 402.482758 360.439087 403.576508 360.673462 404.701447 C 362.251617 412.352509 356.751617 418.06543 350.569336 423.128082 C 349.001617 424.414551 347.402679 425.617706 345.892303 426.742645 C 340.704803 430.601959 336.235992 433.924896 336.824554 438.523834 C 337.105804 441.305054 338.647461 444.107178 340.282959 447.07077 C 340.99649 448.362427 341.668427 449.669708 342.25174 450.935303 C 341.204865 450.560303 339.996552 450.154053 338.350677 449.716553 C 337.480865 449.503021 336.626678 449.424896 335.772552 449.341553 C 328.355865 439.32077 322.027222 426.450897 323.850677 416.581543 C 324.05899 415.461761 323.319427 414.373291 322.189209 414.164886 C 321.069427 414.013824 319.975616 414.696136 319.772552 415.831543 C 318.069489 424.993042 322.204803 437.26889 330.855865 449.607544 C 329.439209 449.904419 328.09549 450.404419 326.824677 451.045044 C 321.730957 447.795044 315.605865 445.685699 308.059357 444.998077 C 297.944824 443.951202 297.1427 440.586639 297.173859 437.216888 C 297.189484 435.93042 297.345734 434.612762 297.507202 433.310638 C 297.929077 429.675171 298.371796 425.925171 296.231171 422.909546 C 295.569702 421.972046 294.272797 421.737671 293.345703 422.404327 C 292.408203 423.060577 292.184235 424.352203 292.845703 425.289795 C 294.064453 427.0242 293.741547 429.841949 293.392578 432.821014 C 293.225922 434.263672 293.054047 435.727295 293.038422 437.149139 C 292.955078 444.36795 297.460297 448.050201 307.663788 449.102203 C 313.7211 449.649078 318.747101 451.159546 323.002441 453.482452 C 320.585785 455.550201 318.653473 458.180328 317.361786 461.024078 C 308.950287 455.899017 300.987091 450.456329 296.304443 461.607422 C 292.830444 459.602203 289.991913 455.940765 287.064819 452.076202 L 286.648163 451.555389 C 284.804443 448.529388 282.9711 445.649139 281.236694 443.149139 C 279.064819 439.763641 276.944946 437.763641 274.418945 436.685516 C 273.330414 436.206329 272.163788 435.982391 271.033478 435.774048 L 270.148071 437.716705 L 270.538696 435.685547 C 269.387665 435.451172 268.325104 436.206329 268.116821 437.326202 C 267.90329 438.446014 268.637665 439.539795 269.757477 439.748047 L 270.278351 439.847015 C 271.247101 440.029297 272.096069 440.185577 272.767944 440.48764 C 274.517944 441.232422 276.054352 442.742828 277.793945 445.456451 C 279.517944 447.951263 281.304352 450.758575 283.226196 453.883514 L 283.74704 454.581421 C 287.033447 458.935577 290.476227 463.274078 295.064789 465.607422 C 294.892914 467.857422 295.580414 470.128265 296.898102 472.169952 C 293.65332 481.20639 287.413696 483.435577 282.523438 484.258514 C 279.091187 485.044952 275.664093 485.123077 272.346344 485.196014 C 267.908905 485.305389 263.710907 485.393921 259.752655 487.112671 C 253.914093 489.80014 250.408905 494.623077 248.388092 502.732666 C 248.112061 503.842041 248.783936 504.97229 249.898529 505.248291 C 250.070404 505.289948 250.237061 505.31601 250.403717 505.31601 C 251.330811 505.31601 252.179718 504.68576 252.419312 503.74826 C 254.570404 495.112793 258.216278 492.399323 261.445313 490.90451 C 264.611969 489.53479 268.414093 489.435699 272.445313 489.347168 C 275.960938 489.253418 279.606781 489.175293 283.33078 488.326385 C 291.377716 486.993042 296.86145 482.753418 300.024139 475.565948 C 301.310577 476.576385 302.794922 477.425293 304.472015 478.019043 C 311.242798 480.701294 321.783966 478.310699 319.778656 470.591949 C 319.778656 470.591949 320.549469 470.868011 321.721313 471.180511 C 319.48172 477.649292 320.434845 487.15918 323.794281 491.008514 C 326.960938 494.586639 326.98172 495.794922 326.955719 496.003296 C 326.903656 496.367889 325.924469 496.982452 325.148407 497.487701 C 320.768097 500.268921 316.622406 504.30542 322.815063 517.107666 C 323.16922 517.84729 323.908813 518.279541 324.679596 518.279541 C 324.986908 518.279541 325.294189 518.211914 325.585846 518.071289 C 326.617096 517.571289 327.04422 516.336792 326.549408 515.300415 C 321.440063 504.75351 324.460846 502.836823 327.372314 500.988434 C 328.950439 499.983246 330.742035 498.837402 331.054565 496.582184 C 331.361847 494.384308 330.117065 491.905121 326.908691 488.28006 C 324.924316 486.009247 323.606567 477.915527 325.721222 472.233398 C 325.752472 472.139648 325.794159 472.082367 325.830597 471.999023 C 328.309784 472.332367 331.247284 472.472992 334.153534 471.60318 C 335.346222 471.238556 336.169098 470.920868 336.867096 470.608398 C 339.304596 477.285431 340.523407 485.327057 340.221283 494.983032 C 340.028564 500.597565 345.299408 501.493439 349.960846 502.300781 C 350.992096 502.472656 352.085938 502.654938 353.236847 502.89975 C 359.137939 504.071625 365.799408 506.102814 370.054199 515.592407 C 370.392761 516.363281 371.147949 516.811157 371.944885 516.811157 C 372.226135 516.811157 372.517761 516.753906 372.799011 516.628906 C 373.845886 516.165283 374.309387 514.936157 373.835449 513.889282 C 369.017761 503.128876 361.476105 500.290619 354.059448 498.83728 C 352.882416 498.58728 351.746948 498.389374 350.668793 498.207031 C 345.319855 497.295624 344.314667 496.806 344.382416 495.11853 C 344.720947 484.384125 343.273041 475.415863 340.351196 468.025177 C 341.033478 467.337677 342.02829 466.509613 343.877197 465.436646 C 344.392822 466.009552 344.944916 466.650177 345.43454 467.197052 C 348.663727 470.790771 352.288666 474.811554 353.002289 476.462646 C 352.273102 477.228271 351.257477 478.613739 351.882477 480.228241 C 352.861664 482.790771 356.361694 482.847992 364.012726 482.988647 C 365.877289 483.030304 367.913818 483.061554 370.096069 483.155304 C 381.695007 483.394897 394.512085 484.613739 401.554749 491.723053 C 401.960999 492.13974 402.492249 492.337646 403.033936 492.337646 C 403.554749 492.337646 404.085999 492.13974 404.492371 491.738678 C 405.304871 490.926178 405.315247 489.613617 404.507996 488.801239 C 396.377686 480.670929 382.570618 479.301239 370.174622 479.040802 Z"/>
        <path id="path5" fill="#000000" stroke="none" d="M 200.693329 437.213348 L 199.516235 437.255005 C 198.854828 437.281036 196.802643 437.322723 194.005859 437.327911 L 180.240509 437.156036 C 177.256134 437.062286 174.157196 436.906036 171.157196 436.73938 C 163.26651 436.317505 156.449188 435.95813 152.99585 436.869598 C 150.225067 437.593536 147.594788 438.978912 145.157318 440.775848 C 142.396912 440.255005 139.688507 440.17688 137.110382 440.411255 C 138.230164 437.265381 139.011444 434.130035 139.574005 431.567535 L 140.074005 429.260223 C 140.21463 429.17688 140.381287 429.088287 140.521912 429.010223 C 143.011505 427.614349 145.157379 426.411255 146.553101 425.817535 C 148.803101 424.786255 150.021912 425.411255 152.782318 427.010223 C 157.230164 429.58316 163.329254 433.098755 177.636993 427.723785 C 178.704681 427.327972 179.246307 426.130035 178.850525 425.062286 C 178.454681 423.984222 177.24118 423.426849 176.17865 423.848755 C 163.715057 428.510223 158.798645 425.697723 154.855988 423.416473 C 152.033051 421.796753 149.137177 420.124756 144.881989 422.015411 C 143.913239 422.432098 142.642395 423.103973 141.241302 423.874756 L 142.741302 416.932098 C 145.486115 406.874756 145.663177 404.734222 143.793396 403.45874 C 142.100739 402.281647 140.392334 403.542084 138.418457 404.995148 C 137.855957 405.411835 137.225769 405.864899 136.486206 406.370087 C 133.647675 408.427399 131.605927 409.088867 130.022614 408.4534 C 127.710052 407.5159 125.793396 403.427399 124.637115 396.927399 C 124.439209 395.797211 123.381927 395.010742 122.230865 395.250336 C 121.100647 395.448242 120.355927 396.526367 120.553802 397.656616 C 122.03299 405.942993 124.621552 410.729523 128.475677 412.292603 C 132.434052 413.886353 136.329803 411.594696 138.855927 409.77182 C 139.460114 409.36557 140.027802 408.948883 140.548615 408.568695 C 140.241302 410.079102 139.684021 412.391602 138.715271 415.943604 L 136.423553 426.54776 C 132.548615 428.714447 127.860992 431.20401 122.652863 433.428009 C 121.684113 430.178009 123.673676 429.438446 119.059143 424.61026 C 115.928864 421.459229 113.517548 418.511353 111.548721 416.506134 C 109.632065 414.480133 108.402878 413.271759 108.319534 413.230133 C 113.121674 408.428009 108.210159 400.422821 102.012207 395.470123 C 101.980957 394.631592 101.960129 393.845093 101.918457 392.996124 L 101.918457 390.214966 C 101.902832 383.313873 101.887207 376.178955 104.309128 370.662964 C 108.82991 359.42334 113.949799 354.974945 118.459778 351.05896 L 119.829498 349.866241 C 120.694122 349.100616 120.766998 347.793304 120.001404 346.928802 C 119.235779 346.064209 117.91806 345.991302 117.074341 346.756927 L 115.740997 347.93396 C 110.881668 352.15799 105.360733 356.949585 100.486328 369.053986 C 97.741531 375.324799 97.757126 382.908661 97.77272 390.241974 L 97.77272 392.679443 C 90.918594 388.93985 83.694077 390.158661 81.559387 396.783569 C 81.548965 396.825226 81.548965 396.882538 81.533371 396.924194 C 78.62709 394.012726 75.361496 390.471161 71.700027 386.132477 C 68.715622 382.970978 69.283371 379.554321 70.080276 374.830322 L 70.397995 372.856323 C 71.194885 367.27298 72.283463 359.632324 68.871994 347.55899 C 68.564697 346.454834 67.41893 345.80899 66.314651 346.121552 C 65.21051 346.428833 64.56987 347.574615 64.887589 348.678864 C 68.05426 359.9133 67.080261 366.761566 66.257324 372.57486 L 66.002121 374.142609 C 65.121902 379.376984 64.293839 384.319672 68.616653 388.891937 C 72.517715 393.522217 76.84584 398.292999 81.054123 402.313263 C 81.533279 408.802856 85.528122 416.391937 94.491455 418.042603 C 94.111221 423.917511 94.731033 431.813263 97.58519 438.178589 C 91.777847 437.517181 86.56958 435.355682 81.902512 431.631683 C 72.741043 424.105682 66.090515 420.813934 61.194519 421.319122 C 58.861191 421.543091 56.902786 422.595184 55.397583 424.449432 C 51.340256 429.345245 50.767319 440.39743 53.881973 454.006744 C 54.09552 454.970306 54.949692 455.616089 55.907974 455.616089 C 56.059021 455.616089 56.215271 455.600464 56.371521 455.558807 C 57.491318 455.308807 58.18927 454.199463 57.928848 453.07959 C 55.184067 441.089966 55.449661 430.88623 58.600754 427.07959 C 59.413254 426.084808 60.366333 425.563965 61.605942 425.444122 C 65.272598 425.147217 71.246597 428.241058 79.293945 434.860809 C 85.42421 439.756622 92.325134 442.246246 100.091263 442.511841 C 101.981934 445.027466 104.398605 447.032623 107.565262 448.07959 C 117.752747 451.19931 117.346466 448.089996 120.252747 451.19931 C 120.226715 451.548248 120.21109 451.938873 120.17984 452.29306 C 117.27356 453.371185 114.091278 454.298248 111.013168 455.147186 L 109.653824 455.522186 C 101.737167 457.714844 94.263168 459.777374 92.055161 464.996185 C 89.602097 470.751373 91.862442 478.345551 94.086365 484.250854 C 95.00824 486.953949 96.101944 489.761261 97.232224 492.646729 C 99.055161 497.292603 100.940491 502.094604 102.24263 507.001373 C 106.357162 522.741455 101.846786 530.230713 98.784225 533.293335 C 97.971725 534.105957 97.971725 535.418457 98.784225 536.230835 C 99.190475 536.637085 99.721725 536.834961 100.253036 536.834961 C 100.784317 536.834961 101.315536 536.637085 101.721817 536.230835 C 105.404099 532.548584 110.888489 523.704834 106.253036 505.949554 C 104.883301 500.814056 102.961288 495.892212 101.091553 491.142853 C 99.987411 488.319946 98.909302 485.585541 97.987427 482.87207 C 95.049973 475.080322 94.393692 470.069946 95.862366 466.626709 C 97.289429 463.251801 104.133163 461.361115 110.747696 459.53299 L 112.101837 459.15799 C 114.81543 458.418427 117.471558 457.600677 120.049683 456.710114 C 120.091339 459.309052 120.367401 462.059052 121.211151 464.824677 C 122.258026 468.298676 123.966339 471.902802 126.966339 474.980927 C 126.377808 478.678802 127.023651 482.902802 130.580872 488.277863 C 133.935028 493.465332 134.205963 499.329987 134.497528 505.543213 L 134.606903 507.715057 C 134.841278 514.168091 136.122528 521.803101 144.138123 523.53772 C 147.721466 524.240845 150.268402 524.079346 152.533997 523.928345 C 154.408905 523.813721 156.018402 523.688721 158.086121 524.094971 C 160.549713 524.516846 163.377838 525.647095 166.940247 527.620972 C 170.981842 530.016846 176.445465 533.313721 184.080261 538.00647 C 184.418793 538.214844 184.793793 538.313721 185.168793 538.313721 C 185.856293 538.313721 186.543732 537.964844 186.934418 537.324219 C 187.533356 536.355469 187.231293 535.074219 186.252106 534.470093 C 178.595856 529.75647 173.11142 526.464844 169.001434 524.016968 C 164.970245 521.777344 161.715057 520.506592 158.824371 520.016968 C 156.267059 519.501343 154.220245 519.662842 152.251434 519.793091 C 150.162903 519.944092 147.996246 520.084717 144.975433 519.485718 C 140.819183 518.589844 139.011841 515.136841 138.746246 507.537872 L 138.636871 505.355591 C 138.329559 498.865997 138.022278 492.157745 134.058746 486.016937 C 132.01712 482.938812 131.131683 480.449219 130.949402 478.209595 C 131.001495 478.240845 131.043152 478.282501 131.090027 478.31897 C 145.407349 487.704468 159.106018 482.865936 163.079376 474.985626 C 165.147095 471.011627 165.699097 465.298187 164.579376 459.553619 C 163.277283 453.902588 160.084564 448.402588 153.959625 444.272308 C 152.782562 443.527557 151.610687 442.912964 150.444031 442.397369 C 151.621124 441.782806 152.82431 441.251556 154.058563 440.928589 C 156.886688 440.188995 164.03775 440.563995 170.9599 440.928589 C 173.98587 441.095245 177.11615 441.251495 180.168152 441.350464 L 193.980164 441.522339 C 196.886444 441.496307 198.99057 441.465057 199.860443 441.438995 L 199.844818 439.366089 L 201.5896 438.246307 Z M 135.220001 431.911224 C 134.563751 434.734131 133.636658 437.984131 132.313751 441.130005 C 130.944 441.39563 129.615875 441.687286 128.355316 441.984161 C 127.292816 440.656036 126.141724 439.213379 124.798004 437.531097 C 124.683411 437.36441 124.641754 437.265472 124.542786 437.109222 C 128.449066 435.432129 132.037567 433.630005 135.219849 431.911346 Z"/>
        <path id="path6" fill="#000000" stroke="none" d="M 242.34668 290.359985 C 243.825836 290.958923 245.299713 291.255859 246.778931 291.255859 C 248.430023 291.255859 250.065338 290.880859 251.680023 290.12561 C 252.716461 289.646423 253.174805 288.417358 252.700836 287.380798 C 252.221649 286.333923 250.982025 285.886047 249.945648 286.370422 C 247.930023 287.297485 245.956024 287.349548 243.638306 286.427673 C 240.893463 285.714172 237.706024 284.177673 234.56015 282.568359 C 229.367523 280.271423 223.159088 277.526794 217.79483 278.43811 C 216.581299 276.885986 214.95108 275.615173 213.096954 274.781799 C 210.945892 270.427673 210.336548 266.578796 211.211517 263.011047 C 212.38858 259.18811 215.367767 255.34436 219.763641 252.083984 C 220.883423 251.094421 222.018829 250.209045 223.133331 249.34436 C 225.977081 247.130798 228.664551 245.037048 230.367767 241.912109 C 233.372955 236.943298 233.320831 231.042358 230.195892 223.344116 C 229.76358 222.281616 228.5448 221.750366 227.498016 222.198242 C 226.435516 222.630554 225.930298 223.83374 226.352173 224.896118 C 229.753265 233.291992 228.242828 237.396118 226.768829 239.844116 C 225.440704 242.29718 223.190704 244.041992 220.586578 246.068115 C 219.414703 246.979553 218.206299 247.917053 217.159515 248.854553 C 212.195923 252.521179 208.680298 257.109741 207.211639 261.896118 C 206.300171 265.604431 206.737671 269.521179 208.258514 273.666931 C 206.873047 273.635681 205.472137 273.817932 204.112671 274.312805 C 198.154266 276.422119 193.586639 284.307556 200.430389 288.391418 C 200.430389 288.391418 199.940796 288.563293 199.216827 288.912292 C 195.633514 283.037354 188.149109 277.172668 183.310181 276.735229 C 178.961243 276.469543 177.909088 275.745605 177.6539 275.448792 C 177.37265 275.110229 177.482025 274.120667 177.596619 273.068481 L 177.664337 272.448669 C 178.205994 267.479919 177.002869 262.344543 164.638336 258.443359 C 163.544586 258.110046 162.383118 258.708984 162.039398 259.797485 C 161.700836 260.886047 162.294586 262.052673 163.393524 262.396423 C 174.221649 265.81311 173.846588 269.250549 173.549774 272.021484 L 173.482086 272.620483 C 173.284149 274.401672 173.060211 276.438171 174.487305 278.130859 C 175.872772 279.781921 178.445709 280.604858 182.997711 280.886047 C 186.258087 281.182922 192.794647 286.172424 195.789429 291.266296 C 194.351959 292.53717 192.883148 294.110046 191.982086 296.167419 C 191.716461 296.922607 191.549805 297.521545 191.435211 298.058044 C 185.534149 295.620605 178.487335 291.677795 170.612549 285.214294 C 165.893768 281.229919 161.54483 285.532043 157.695892 289.328857 L 157.034424 289.985107 C 152.987488 293.479919 147.909363 297.81842 137.19043 296.50592 C 136.112305 296.422546 135.023773 297.177795 134.883087 298.313232 C 134.742462 299.459106 135.554962 300.485107 136.69043 300.620544 C 149.294556 302.146545 155.565094 296.703918 159.830414 293.037231 L 160.601257 292.271606 C 165.12204 287.818542 166.434601 287.078918 167.944977 288.391357 C 177.064728 295.865356 185.195648 300.172546 191.814331 302.667358 C 191.939331 303.307983 192.007019 304.151794 191.986206 305.229919 C 189.913269 305.136169 187.93927 305.078857 186.246613 305.058044 C 183.293549 304.990295 179.9758 304.927795 178.845551 304.552795 C 178.230957 302.552795 177.06955 301.91217 176.173676 301.740295 C 173.079926 301.125671 170.53299 305.016296 165.730988 311.953857 L 165.142456 312.81842 C 162.809113 316.594421 159.835114 320.714294 156.803925 324.391388 C 156.017487 325.287231 155.152863 326.156982 154.256989 326.969513 C 153.527832 327.625763 152.715393 328.255981 151.824738 328.860199 C 149.897675 330.172699 147.751801 331.266449 145.454987 332.120575 C 144.387299 332.516388 143.829926 333.703888 144.2258 334.782074 C 144.533112 335.620605 145.329987 336.1362 146.168488 336.1362 C 146.408051 336.1362 146.647675 336.094513 146.882019 336.005981 C 149.496552 335.04245 151.94455 333.792358 154.147614 332.297729 C 155.194489 331.584137 156.152832 330.839325 157.027893 330.047729 C 158.048737 329.125824 159.012299 328.146637 159.954956 327.084106 C 163.142426 323.219574 166.236176 318.938232 168.606018 315.094543 L 169.137299 314.323669 C 171.168488 311.381042 173.616486 307.844482 175.059143 306.407043 C 176.027893 309.00592 179.689423 309.068481 186.152863 309.203918 C 187.81955 309.235168 189.788361 309.328918 191.710205 309.401855 C 191.684174 309.724792 191.658142 310.10498 191.637299 310.35498 C 188.72583 310.677917 185.434235 312.078979 183.283173 314.485291 C 182.132111 315.662354 181.06955 317.042603 180.173828 318.542603 C 179.44986 320.068604 178.970703 321.730042 178.658234 323.42807 C 177.705109 328.115509 181.246765 331.724976 185.288483 334.006195 C 189.418762 336.480194 195.262482 336.776978 199.319183 337.813507 C 208.095184 338.667694 213.735138 336.823944 214.616486 330.969818 C 215.137329 326.209381 205.731049 320.323914 200.580475 316.105774 C 200.606537 315.850586 200.68985 315.741211 200.731537 315.558899 C 202.736725 316.444336 204.997162 317.157837 207.210724 317.840149 C 210.075287 318.7099 213.033691 319.621277 214.934723 320.845276 C 216.153473 321.610901 216.992065 322.860901 217.877411 325.33493 C 218.393036 326.480743 218.840942 327.689056 219.288849 328.928619 C 219.752411 330.183838 220.215942 331.449463 220.867035 332.902618 C 222.226318 335.256805 223.986725 337.985962 226.841034 340.376617 C 229.585815 342.43396 232.966064 344.126617 237.466064 345.725586 C 237.700439 345.808929 237.929596 345.850586 238.153564 345.850586 C 239.007721 345.850586 239.804657 345.319336 240.10144 344.465118 C 240.481659 343.386993 239.919159 342.20993 238.841034 341.824463 C 234.742096 340.371368 231.715973 338.86084 229.398346 337.136963 C 227.132782 335.235931 225.674347 332.991119 224.54422 331.048462 C 224.039032 329.876556 223.596313 328.694305 223.169312 327.512054 C 222.679718 326.183929 222.200562 324.881805 221.710907 323.803802 C 220.88797 321.512024 219.705688 318.960022 217.13797 317.366272 C 214.783813 315.840271 211.539032 314.850708 208.408783 313.897522 C 207.356689 313.574585 206.283691 313.241272 205.25769 312.892273 C 205.861847 312.637085 206.346222 312.444397 207.122223 312.053772 C 207.455566 311.881897 207.684723 311.637085 207.986816 311.439148 C 219.856567 314.121399 231.246826 320.18396 237.888153 327.527191 C 238.653778 328.37088 239.96109 328.438599 240.815216 327.683441 C 241.669403 326.912598 241.726685 325.600098 240.966278 324.756348 C 234.138153 317.188599 222.736938 310.933655 210.75827 307.865662 C 211.013458 307.178162 211.190552 306.454224 211.279083 305.683411 C 215.982178 305.12616 220.320679 303.542786 224.555084 300.537537 C 229.102051 297.167786 231.59668 298.511536 234.346832 301.933411 C 235.154144 302.954285 235.914551 304.058472 236.680176 305.141663 C 238.810425 308.188599 240.820831 311.063538 243.424957 312.376099 C 243.721832 312.532349 244.044769 312.600037 244.362457 312.600037 C 245.117676 312.600037 245.846893 312.178162 246.211395 311.454224 C 246.727051 310.433411 246.320801 309.188599 245.299957 308.673035 C 243.622894 307.818848 241.825958 305.245911 240.081146 302.756348 C 239.273834 301.605286 238.461426 300.443787 237.601959 299.34491 C 235.898895 297.230347 230.747803 290.777161 222.128632 297.173035 C 218.670197 299.636597 215.087036 301.006348 211.217163 301.527161 C 210.82132 298.954224 209.889038 296.25116 208.644196 293.709412 C 216.826508 292.761536 224.232208 292.99585 219.852509 282.417664 C 223.732758 282.334351 228.482758 284.417664 232.75354 286.318787 C 236.03476 287.975037 239.477539 289.631287 242.34729 290.360352 Z"/>
        <path id="path7" fill="#000000" stroke="none" d="M 418.82666 272.080017 C 421.498535 272.080017 423.852661 271.173767 425.92041 269.361206 C 428.232971 267.210144 429.878784 263.803894 430.774536 259.173767 C 431.446411 255.382019 431.446411 250.194519 430.800598 243.75238 C 430.675598 242.622192 429.753723 241.768005 428.529785 241.903442 C 427.394348 242.018066 426.560974 243.038879 426.670471 244.174255 C 427.290222 250.236816 427.290222 255.049194 426.701721 258.419617 C 425.977722 262.117493 424.769409 264.784119 423.144348 266.284119 C 419.222473 269.71637 412.623596 267.544556 403.565674 259.831055 C 397.419861 254.612244 390.654236 252.138367 383.830994 251.393616 C 382.211304 248.872803 380.039307 246.747742 376.961304 245.393616 C 367.122772 241.185364 367.37796 244.456116 364.575806 240.919617 C 364.627899 240.554993 364.669556 240.112305 364.706024 239.726868 C 367.617523 238.94043 370.768555 238.284241 374.049744 237.742493 L 375.883118 237.424805 C 383.90387 236.055054 391.48175 234.768494 393.909729 229.544495 C 398.237915 220.461182 391.446167 204.919189 382.852417 185.241882 L 380.206604 179.158508 C 369.097229 154.642517 372.425354 146.794495 373.701355 144.97052 C 374.362854 144.03302 374.138855 142.741333 373.196167 142.085083 C 372.258667 141.428772 370.972168 141.647583 370.310669 142.590271 C 367.190948 147.022522 365.722168 157.256958 376.409607 180.835571 L 379.050293 186.898132 C 386.899231 204.867493 393.686279 220.382141 390.159607 227.772827 C 388.633606 231.048828 381.805481 232.210266 375.190247 233.340515 L 373.346558 233.658264 C 370.586121 234.121765 367.77359 234.694702 365.02359 235.377014 C 365.205933 229.095825 364.028839 221.341064 357.799591 214.429016 C 358.278809 210.455017 357.382935 205.486389 352.226685 198.658386 C 348.158936 193.455322 345.872559 187.439575 343.674561 181.631714 C 342.747467 179.17865 341.825592 176.751465 340.820435 174.491028 C 336.705902 164.168091 330.601593 158.621704 322.528412 158.007019 C 317.382568 157.975769 314.205475 158.663269 311.403351 159.350769 C 309.387726 159.840332 307.486694 160.303894 304.788818 160.439331 C 302.169067 160.772644 298.439911 160.413269 293.288818 159.923706 C 286.976288 159.324707 278.319489 158.507019 266.616821 158.470642 C 265.470978 158.470642 264.543915 159.397705 264.543915 160.543579 C 264.543915 161.689392 265.46579 162.616516 266.616821 162.616516 C 278.132416 162.642517 286.668823 163.455017 292.898163 164.043579 C 298.325226 164.564392 302.241913 164.939392 305.142944 164.564392 C 308.080414 164.41333 310.262695 163.88208 312.37735 163.371704 C 315.179474 162.689392 317.830414 162.080017 322.314819 162.142517 C 328.642944 162.63208 333.424164 167.16333 336.981476 176.090515 C 337.986694 178.356079 338.882568 180.720764 339.7836 183.100891 C 342.096161 189.199829 344.486694 195.51239 348.924286 201.183594 C 351.804565 204.985718 353.096161 207.98053 353.544037 210.506531 C 353.476318 210.454407 353.434662 210.397156 353.372162 210.350281 C 349.059601 207.28772 345.002411 205.308655 341.184692 204.235718 C 337.169067 203.183655 333.611725 203.058655 330.616943 203.595093 C 324.611725 204.688843 320.835724 208.407654 319.351349 212.798157 C 317.773193 217.292969 318.299286 223.178406 319.632599 229.043518 C 320.439911 231.928955 321.663788 234.736145 323.268066 237.470581 C 325.033661 240.126831 327.242065 242.65802 330.210724 244.960144 C 331.330536 245.829956 332.465942 246.553894 333.622192 247.184143 C 332.403442 247.705017 331.148193 248.137268 329.882599 248.361267 C 327.924194 248.710205 323.726318 248.345642 319.278442 247.955017 C 314.476318 247.533142 309.018066 247.027893 304.065155 247.173767 C 299.64328 247.001892 295.414063 247.678955 292.325531 248.168518 L 290.815155 248.402893 C 287.455811 249.017517 285.362061 249.871704 285.273529 249.902893 C 284.221436 250.340393 283.716187 251.553955 284.153717 252.605957 C 284.487061 253.402832 285.257904 253.882019 286.070404 253.882019 C 286.336029 253.882019 286.591217 253.829895 286.856842 253.725769 C 286.872467 253.715332 288.664185 252.996582 291.49231 252.480957 L 292.971527 252.257019 C 295.893402 251.798645 299.888184 251.147644 304.039276 251.309082 C 308.950714 251.184082 314.237152 251.65802 318.91394 252.074707 C 324.059784 252.53302 328.122192 252.887207 330.627533 252.428894 C 333.41394 251.928894 336.127533 250.75177 338.669098 249.152893 C 341.50766 249.949768 344.335785 250.262268 347.038849 250.246643 C 345.387787 253.855957 343.960724 257.637268 342.809662 261.288208 C 340.054443 262.53302 337.663788 263.600769 336.174194 264.03302 C 333.741943 264.829895 332.590851 264.105896 329.986725 262.241272 C 329.299225 261.741272 328.559662 261.220459 327.731537 260.699646 C 324.080444 258.460083 317.799286 255.928894 305.450195 259.762146 C 304.356445 260.100708 303.747101 261.262146 304.080444 262.361145 C 304.429413 263.454834 305.575287 264.064148 306.679413 263.730835 C 317.299103 260.428711 322.35141 262.2724 325.539398 264.230835 C 326.278961 264.694397 326.94046 265.178772 327.580963 265.626709 C 330.22168 267.512146 332.950714 269.470459 337.388336 268.017395 C 338.419586 267.725708 339.752838 267.178833 341.24765 266.532959 C 341.174713 266.788147 341.075775 267.095459 341.008057 267.355896 C 340.31015 269.736145 339.721649 271.788147 339.190338 273.21521 C 335.607025 282.621521 335.200714 285.126709 336.992462 286.579224 C 338.695557 287.964661 340.633148 286.704224 342.898712 285.251099 C 345.362335 283.667786 348.732056 281.485535 351.086212 282.579224 C 352.643555 283.292786 354.737274 285.829224 355.872589 293.860413 C 356.023651 294.891663 356.903839 295.641663 357.919556 295.641663 C 358.018524 295.641663 358.112274 295.631226 358.211212 295.615601 C 359.346649 295.459351 360.127899 294.402039 359.971588 293.277039 C 358.8414 285.230164 356.497589 280.490662 352.820557 278.798401 C 348.388275 276.7724 343.737213 279.767151 340.659058 281.751465 C 340.627808 281.76709 340.601776 281.782715 340.575714 281.803528 C 340.992401 280.376465 341.737183 278.147278 343.065338 274.662903 C 343.62265 273.147278 344.252838 271.01178 344.982025 268.517029 C 345.357025 267.246155 345.804932 265.76178 346.242432 264.308777 C 350.299774 262.485779 355.226807 260.345154 360.638428 258.600464 C 361.351959 261.913025 359.237335 262.423401 363.398804 267.543152 C 365.997772 270.876465 368.367615 273.699402 370.13324 275.704651 C 371.898804 277.720215 372.935364 278.808777 373.03949 278.866089 C 367.690552 283.204651 372.341553 290.673401 378.273865 295.158081 C 378.273865 296.329956 378.25824 297.465393 378.273865 298.699646 C 378.357239 305.178894 378.440552 312.53833 376.305115 318.173035 C 371.872803 329.756348 367.60202 334.183685 363.070679 338.881012 L 362.44046 339.537262 C 361.643585 340.365387 361.669647 341.677948 362.497772 342.464325 C 362.893585 342.85498 363.40921 343.047638 363.935211 343.047638 C 364.476898 343.047638 365.023773 342.839325 365.430023 342.407013 L 366.060272 341.7612 C 370.679993 336.974823 375.450928 332.021606 380.180237 319.651855 C 382.596924 313.282166 382.503174 305.515869 382.430237 298.662537 C 382.419861 298.329163 382.430237 298.006287 382.419861 297.672913 C 389.258362 300.834412 396.40918 299.256287 398.581177 293.376038 C 398.591614 293.360413 398.591614 293.334351 398.596802 293.308289 C 401.78949 296.146851 404.909302 299.058289 407.159302 301.172852 L 408.310364 302.250977 C 411.122864 305.105103 410.75824 307.537354 410.102112 311.948792 C 409.305237 317.266541 408.211426 324.542572 413.169861 335.579498 C 413.633362 336.626373 414.862488 337.115875 415.909424 336.615967 C 416.956299 336.152374 417.419861 334.923309 416.945862 333.876343 C 412.492798 323.954468 413.435486 317.641663 414.201111 312.569641 C 414.883362 307.991516 415.529236 303.673828 411.206299 299.277954 L 409.992737 298.142517 C 406.008362 294.408142 402.492737 291.184143 399.305237 288.460266 C 399.133362 282.76239 395.596985 276.340515 387.07605 274.757629 C 387.872986 270.40863 388.0448 264.169067 386.883362 258.694946 C 386.648987 257.757446 386.310425 256.872009 385.997986 255.965759 C 391.206238 256.92926 396.279114 259.075073 400.88324 263.002136 C 408.008362 269.059448 413.950989 272.080261 418.825928 272.080261 Z M 347.993317 258.991455 C 349.061035 255.91333 350.243317 252.809204 351.675629 249.981079 C 353.092285 249.840454 354.472534 249.673767 355.743317 249.501892 C 356.654785 250.954956 357.649628 252.522705 358.811066 254.356018 C 358.904816 254.50708 358.925659 254.595642 359.003784 254.736267 C 355.019379 256.043518 351.311127 257.548767 347.993378 258.991455 Z"/>
        <g id="g1">
            <g id="g2">
                <path id="path8" fill="#000000" stroke="none" d="M -22.874664 771.109375 C -24.306931 771.859375 -25.801735 772.421875 -27.353867 772.796875 C -28.911201 773.171875 -30.530937 773.359375 -32.208 773.359375 C -37.249603 773.359375 -41.2444 771.958252 -44.187202 769.151062 C -47.135063 766.333374 -48.603867 762.515625 -48.603867 757.692688 C -48.603867 752.859375 -47.135063 749.036377 -44.187202 746.213501 C -41.244537 743.395752 -37.249733 741.984253 -32.208 741.984253 C -30.530937 741.984253 -28.911064 742.18219 -27.353867 742.567627 C -25.801735 742.942627 -24.306931 743.499878 -22.874664 744.234253 L -22.874664 750.505066 C -24.322533 749.520691 -25.7444 748.796814 -27.14547 748.338379 C -28.551735 747.880066 -30.030937 747.65094 -31.582932 747.65094 C -34.364136 747.65094 -36.551735 748.541565 -38.14547 750.317566 C -39.7444 752.098755 -40.541336 754.55719 -40.541336 757.692505 C -40.541336 760.807068 -39.744453 763.255066 -38.14547 765.046631 C -36.551735 766.827881 -34.364265 767.713318 -31.582932 767.713318 C -30.0308 767.713318 -28.551735 767.484131 -27.14547 767.025818 C -25.7444 766.567505 -24.322533 765.848755 -22.874664 764.859131 Z"/>
            </g>
        </g>
        <g id="g3">
            <g id="g4">
                <path id="path9" fill="#000000" stroke="none" d="M 0.109375 756.276001 C -0.53125 755.973938 -1.161453 755.75 -1.786499 755.609375 C -2.411499 755.473938 -3.046906 755.401001 -3.682358 755.401001 C -5.54689 755.401001 -6.984497 756 -7.994888 757.192749 C -8.994888 758.390686 -9.494888 760.09906 -9.494888 762.317871 L -9.494888 772.776245 L -16.744896 772.776245 L -16.744896 750.088257 L -9.494888 750.088257 L -9.494888 753.817444 C -8.56781 752.333008 -7.494888 751.249695 -6.286621 750.567444 C -5.078293 749.890381 -3.630356 749.546631 -1.932495 749.546631 C -1.69812 749.546631 -1.442902 749.562256 -1.161667 749.588257 C -0.869995 749.603882 -0.453339 749.645569 0.088333 749.713257 Z"/>
            </g>
        </g>
        <g id="g5">
            <g id="g6">
                <path id="path10" fill="#000000" stroke="none" d="M 26.359711 761.380188 L 26.359711 763.442688 L 9.401047 763.442688 C 9.578125 765.140564 10.197922 766.416687 11.255173 767.276001 C 12.307251 768.125 13.781174 768.546875 15.671844 768.546875 C 17.197845 768.546875 18.760376 768.328125 20.359314 767.880188 C 21.953033 767.421875 23.598907 766.734375 25.296768 765.817627 L 25.296768 771.401001 C 23.572769 772.057251 21.848907 772.541626 20.130112 772.859375 C 18.421844 773.192749 16.71344 773.359375 15.005035 773.359375 C 10.890503 773.359375 7.697708 772.317749 5.421707 770.234314 C 3.156113 768.151001 2.025848 765.229126 2.025848 761.463501 C 2.025848 757.755249 3.135208 754.848999 5.359177 752.734314 C 7.593582 750.609253 10.671707 749.546875 14.588379 749.546875 C 18.156113 749.546875 21.010239 750.625 23.150909 752.776062 C 25.286377 754.916748 26.359177 757.786499 26.359177 761.380188 Z M 18.901306 758.963501 C 18.901306 757.588562 18.495056 756.479126 17.692978 755.630188 C 16.901306 754.786438 15.849243 754.359375 14.547104 754.359375 C 13.140839 754.359375 12.005508 754.755188 11.130447 755.546875 C 10.255371 756.338501 9.703369 757.479126 9.484573 758.963501 Z"/>
            </g>
        </g>
        <g id="g7">
            <g id="g8">
                <path id="path11" fill="#000000" stroke="none" d="M 42.009918 762.567749 C 40.494308 762.567749 39.353653 762.828186 38.593246 763.338623 C 37.843246 763.854248 37.468246 764.609436 37.468246 765.609375 C 37.468246 766.526062 37.770325 767.250061 38.384918 767.776062 C 38.994293 768.291687 39.848511 768.546875 40.947449 768.546875 C 42.306778 768.546875 43.452652 768.0625 44.384918 767.088501 C 45.311996 766.104126 45.780777 764.874878 45.780777 763.401001 L 45.780777 762.567688 Z M 53.093246 759.838562 L 53.093246 772.776062 L 45.780716 772.776062 L 45.780716 769.421875 C 44.806763 770.796875 43.707779 771.796875 42.488983 772.421875 C 41.280655 773.046875 39.806717 773.359375 38.072311 773.359375 C 35.723389 773.359375 33.81192 772.682312 32.343109 771.31781 C 30.88472 769.942871 30.155655 768.161499 30.155655 765.963684 C 30.155655 763.312622 31.061905 761.369934 32.884842 760.13031 C 34.718185 758.88031 37.593109 758.255371 41.509918 758.255371 L 45.780716 758.255371 L 45.780716 757.692871 C 45.780716 756.54187 45.327591 755.703308 44.42659 755.172119 C 43.520325 754.630432 42.114044 754.359619 40.197388 754.359619 C 38.640045 754.359619 37.186981 754.521057 35.843246 754.838745 C 34.509918 755.146057 33.270309 755.609619 32.134979 756.234619 L 32.134979 750.692993 C 33.687119 750.317993 35.244308 750.036743 36.801651 749.838867 C 38.369385 749.646179 39.937119 749.54718 41.509918 749.54718 C 45.603653 749.54718 48.556854 750.354492 50.364044 751.963867 C 52.181778 753.578369 53.093246 756.203491 53.093246 759.838806 Z"/>
            </g>
        </g>
        <g id="g9">
            <g id="g10">
                <path id="path12" fill="#000000" stroke="none" d="M 67.755234 743.650696 L 67.755234 750.088196 L 75.234436 750.088196 L 75.234436 755.275635 L 67.755234 755.275635 L 67.755234 764.900696 C 67.755234 765.958008 67.963577 766.671509 68.380234 767.04657 C 68.807327 767.411133 69.640656 767.588257 70.880234 767.588257 L 74.609436 767.588257 L 74.609436 772.775696 L 68.380234 772.775696 C 65.515701 772.775696 63.489578 772.181946 62.296906 770.984009 C 61.098984 769.79126 60.505173 767.765198 60.505173 764.900635 L 60.505173 755.275574 L 56.901047 755.275574 L 56.901047 750.088135 L 60.505173 750.088135 L 60.505173 743.650635 Z"/>
            </g>
        </g>
        <g id="g11">
            <g id="g12">
                <path id="path13" fill="#000000" stroke="none" d="M 102.312836 761.380188 L 102.312836 763.442688 L 85.354172 763.442688 C 85.53125 765.140564 86.151047 766.416687 87.208298 767.276001 C 88.260376 768.125 89.734299 768.546875 91.624969 768.546875 C 93.15097 768.546875 94.713501 768.328125 96.312439 767.880188 C 97.906158 767.421875 99.552032 766.734375 101.249893 765.817627 L 101.249893 771.401001 C 99.525894 772.057251 97.802032 772.541626 96.083237 772.859375 C 94.374969 773.192749 92.666565 773.359375 90.95816 773.359375 C 86.843628 773.359375 83.650833 772.317749 81.374832 770.234314 C 79.109238 768.151001 77.978973 765.229126 77.978973 761.463501 C 77.978973 757.755249 79.088333 754.848999 81.312302 752.734314 C 83.546707 750.609253 86.624832 749.546875 90.541504 749.546875 C 94.109238 749.546875 96.963364 750.625 99.104034 752.776062 C 101.239502 754.916748 102.312302 757.786499 102.312302 761.380188 Z M 94.854431 758.963501 C 94.854431 757.588562 94.448181 756.479126 93.646103 755.630188 C 92.854431 754.786438 91.802368 754.359375 90.500229 754.359375 C 89.093964 754.359375 87.958633 754.755188 87.083572 755.546875 C 86.208496 756.338501 85.656494 757.479126 85.437698 758.963501 Z"/>
            </g>
        </g>
        <g id="g13">
            <g id="g14">
                <path id="path14" fill="#000000" stroke="none" d="M 123.240265 753.421387 L 123.240265 741.2547 L 130.531982 741.2547 L 130.531982 772.776062 L 123.240265 772.776062 L 123.240265 769.505249 C 122.240265 770.838562 121.136108 771.817749 119.927704 772.442688 C 118.729797 773.052063 117.344391 773.359375 115.761047 773.359375 C 112.96933 773.359375 110.667313 772.25 108.865189 770.026001 C 107.073456 767.807251 106.177719 764.953125 106.177719 761.463501 C 106.177719 757.963501 107.073563 755.104187 108.865189 752.880188 C 110.667313 750.661377 112.96933 749.546875 115.761047 749.546875 C 117.328796 749.546875 118.719452 749.859375 119.927704 750.484314 C 121.135986 751.109314 122.240265 752.088501 123.240265 753.421814 Z M 118.469452 768.088013 C 120.011047 768.088013 121.188263 767.525513 122.011047 766.400574 C 122.828766 765.265137 123.240234 763.619385 123.240234 761.463135 C 123.240234 759.296448 122.828766 757.650574 122.011047 756.525635 C 121.188141 755.390259 120.011047 754.817383 118.469452 754.817383 C 116.927856 754.817383 115.745453 755.390259 114.927856 756.525635 C 114.104919 757.650635 113.698669 759.296448 113.698669 761.463135 C 113.698669 763.619385 114.104919 765.265259 114.927856 766.400574 C 115.745544 767.525574 116.927856 768.088013 118.469452 768.088013 Z"/>
            </g>
        </g>
        <g id="g15">
            <g id="g16">
                <path id="path15" fill="#000000" stroke="none" d="M 164.020996 768.088562 C 165.562592 768.088562 166.739807 767.526062 167.562592 766.401123 C 168.38031 765.265686 168.791779 763.619873 168.791779 761.463623 C 168.791779 759.296997 168.38031 757.651123 167.562592 756.526184 C 166.739685 755.390747 165.562592 754.817871 164.020996 754.817871 C 162.463654 754.817871 161.270996 755.390808 160.437653 756.526184 C 159.60434 757.666809 159.187653 759.312561 159.187653 761.463623 C 159.187653 763.604309 159.60434 765.244873 160.437653 766.38031 C 161.270996 767.520935 162.463654 768.088562 164.020996 768.088562 Z M 159.187653 753.421875 C 160.187653 752.088562 161.291809 751.109375 162.500214 750.484436 C 163.718933 749.859436 165.125275 749.546936 166.708466 749.546936 C 169.500214 749.546936 171.791809 750.661499 173.583405 752.880249 C 175.385529 755.104248 176.291656 757.963623 176.291656 761.463623 C 176.291656 764.953247 175.385406 767.807373 173.583405 770.026123 C 171.791656 772.250122 169.500061 773.359497 166.708466 773.359497 C 165.125122 773.359497 163.718872 773.046997 162.500214 772.421997 C 161.29187 771.796997 160.187653 770.828247 159.187653 769.50531 L 159.187653 772.776123 L 151.937653 772.776123 L 151.937653 741.254761 L 159.187653 741.254761 Z"/>
            </g>
        </g>
        <g id="g17">
            <g id="g18">
                <path id="path16" fill="#000000" stroke="none" d="M 178.651031 750.088013 L 185.901031 750.088013 L 192.005188 765.484009 L 197.192627 750.088013 L 204.442627 750.088013 L 194.901031 774.921387 C 193.942719 777.447388 192.822906 779.213135 191.546906 780.213135 C 190.265656 781.223511 188.588501 781.733887 186.50531 781.733887 L 182.297028 781.733887 L 182.297028 776.963135 L 184.567841 776.963135 C 185.802216 776.963135 186.69812 776.765198 187.25531 776.379761 C 187.807373 775.989136 188.244904 775.286011 188.56781 774.275635 L 188.75531 773.650635 Z"/>
            </g>
        </g>
        <g id="g19">
            <g id="g20">
                <path id="path17" fill="#000000" stroke="none" d="M 220.859375 742.546692 L 228.338593 742.546692 L 233.56778 764.505371 L 238.755249 742.546692 L 246.255249 742.546692 L 251.442719 764.505371 L 256.671906 742.546692 L 264.088593 742.546692 L 256.963501 772.776062 L 247.963501 772.776062 L 242.484314 749.797363 L 237.046844 772.776062 L 228.046844 772.776062 Z"/>
            </g>
        </g>
        <g id="g21">
            <g id="g22">
                <path id="path18" fill="#000000" stroke="none" d="M 268.864624 750.088013 L 276.114624 750.088013 L 276.114624 772.776062 L 268.864624 772.776062 Z M 268.864624 741.2547 L 276.114624 741.2547 L 276.114624 747.171387 L 268.864624 747.171387 Z"/>
            </g>
        </g>
        <g id="g23">
            <g id="g24">
                <path id="path19" fill="#000000" stroke="none" d="M 305.896179 758.96405 L 305.896179 772.776062 L 298.604431 772.776062 L 298.604431 762.213501 C 298.604431 760.255127 298.552338 758.911377 298.458588 758.171875 C 298.375244 757.421875 298.229431 756.869812 298.021088 756.505249 C 297.729431 756.036499 297.338806 755.666687 296.854431 755.401062 C 296.364838 755.140686 295.817993 755.005249 295.208557 755.005249 C 293.692963 755.005249 292.500305 755.598999 291.625244 756.776001 C 290.760651 757.942688 290.333557 759.557251 290.333557 761.609375 L 290.333557 772.776062 L 283.083557 772.776062 L 283.083557 750.088013 L 290.333557 750.088013 L 290.333557 753.421387 C 291.427307 752.088013 292.588776 751.108826 293.812775 750.483887 C 295.04715 749.858887 296.406494 749.546387 297.896088 749.546387 C 300.505432 749.546387 302.489838 750.353699 303.854492 751.963074 C 305.213837 753.562012 305.896088 755.895325 305.896088 758.963074 Z"/>
            </g>
        </g>
        <g id="g25">
            <g id="g26">
                <path id="path20" fill="#000000" stroke="none" d="M -32.250664 782.739075 L -32.250664 787.509888 L -36.271469 787.509888 C -37.302719 787.509888 -38.016266 787.697388 -38.417336 788.072388 C -38.823586 788.437012 -39.021492 789.072388 -39.021492 789.989075 L -39.021492 791.572388 L -32.83403 791.572388 L -32.83403 796.759888 L -39.021492 796.759888 L -39.021492 814.259888 L -46.271492 814.259888 L -46.271492 796.759888 L -49.875626 796.759888 L -49.875626 791.572388 L -46.271492 791.572388 L -46.271492 789.989075 C -46.271492 787.520264 -45.584 785.692139 -44.208961 784.509888 C -42.83403 783.332764 -40.703758 782.739075 -37.813095 782.739075 Z"/>
            </g>
        </g>
        <g id="g27">
            <g id="g28">
                <path id="path21" fill="#000000" stroke="none" d="M -12.286453 797.760376 C -12.927078 797.458313 -13.557281 797.234375 -14.182327 797.09375 C -14.807327 796.958313 -15.442734 796.885376 -16.078194 796.885376 C -17.942726 796.885376 -19.380325 797.484375 -20.390724 798.677124 C -21.390724 799.875061 -21.890724 801.583435 -21.890724 803.802246 L -21.890724 814.26062 L -29.140724 814.26062 L -29.140724 791.572632 L -21.890724 791.572632 L -21.890724 795.301819 C -20.963646 793.817383 -19.890724 792.73407 -18.682457 792.051819 C -17.474129 791.374756 -16.026192 791.031006 -14.328323 791.031006 C -14.093948 791.031006 -13.838745 791.046631 -13.557495 791.072632 C -13.265839 791.088257 -12.849167 791.129944 -12.307495 791.197632 Z"/>
            </g>
        </g>
        <g id="g29">
            <g id="g30">
                <path id="path22" fill="#000000" stroke="none" d="M 2.109207 796.219116 C 0.510269 796.219116 -0.71373 796.797241 -1.557465 797.948303 C -2.406418 799.104553 -2.828293 800.77124 -2.828293 802.948303 C -2.828293 805.114929 -2.406403 806.776428 -1.557465 807.92749 C -0.713715 809.08374 0.510269 809.656677 2.109207 809.656677 C 3.692535 809.656677 4.90094 809.08374 5.734268 807.92749 C 6.578018 806.776428 7.005096 805.114929 7.005096 802.948303 C 7.005096 800.77124 6.578018 799.104553 5.734268 797.948303 C 4.90094 796.797241 3.692673 796.219116 2.109207 796.219116 Z M 2.109207 791.031616 C 6.010269 791.031616 9.057068 792.088928 11.255081 794.198303 C 13.447739 796.297241 14.546814 799.213867 14.546814 802.948303 C 14.546814 806.672302 13.447845 809.588928 11.255081 811.698303 C 9.057205 813.797241 6.010269 814.844116 2.109207 814.844116 C -1.807465 814.844116 -4.869995 813.797241 -7.078262 811.698303 C -9.276123 809.588928 -10.369995 806.672302 -10.369995 802.948303 C -10.369995 799.213867 -9.276245 796.297241 -7.078262 794.198303 C -4.869995 792.088989 -1.807465 791.031616 2.109207 791.031616 Z"/>
            </g>
        </g>
        <g id="g31">
            <g id="g32">
                <path id="path23" fill="#000000" stroke="none" d="M 40.833328 795.343079 C 41.75 793.942017 42.838531 792.874268 44.104126 792.134827 C 45.364548 791.400452 46.755203 791.03064 48.270798 791.03064 C 50.880127 791.03064 52.864532 791.837952 54.229202 793.447327 C 55.588531 795.046265 56.270798 797.379578 56.270798 800.447327 L 56.270798 814.259338 L 48.979065 814.259338 L 48.979065 802.426025 C 48.989487 802.259338 48.999893 802.082275 48.999893 801.884338 C 49.010315 801.69165 49.020737 801.420776 49.020737 801.071838 C 49.020737 799.462463 48.781143 798.295837 48.312393 797.571838 C 47.83844 796.853088 47.072815 796.488464 46.02066 796.488464 C 44.645737 796.488464 43.583206 797.061401 42.833206 798.196777 C 42.083206 799.337402 41.692566 800.977966 41.666534 803.113403 L 41.666534 814.259277 L 34.374802 814.259277 L 34.374802 802.425964 C 34.374802 799.915527 34.156052 798.295654 33.728958 797.571838 C 33.296661 796.853088 32.525833 796.488464 31.416428 796.488464 C 30.025757 796.488464 28.947632 797.066589 28.187225 798.217651 C 27.437225 799.358276 27.062225 800.983276 27.062225 803.092651 L 27.062225 814.259277 L 19.770493 814.259277 L 19.770493 791.571289 L 27.062225 791.571289 L 27.062225 794.904602 C 27.947632 793.612915 28.968491 792.649414 30.124756 792.008789 C 31.291428 791.357727 32.567429 791.029541 33.958099 791.029541 C 35.525833 791.029541 36.90596 791.414978 38.103958 792.175415 C 39.312286 792.925415 40.218491 793.982788 40.83316 795.342102 Z"/>
            </g>
        </g>
        <g id="g33">
            <g id="g34">
                <path id="path24" fill="#000000" stroke="none" d="M 85.395859 785.135071 L 85.395859 791.572571 L 92.875061 791.572571 L 92.875061 796.76001 L 85.395859 796.76001 L 85.395859 806.385071 C 85.395859 807.442383 85.604202 808.155884 86.020859 808.530945 C 86.447952 808.895508 87.281281 809.072632 88.520859 809.072632 L 92.250061 809.072632 L 92.250061 814.260071 L 86.020859 814.260071 C 83.156326 814.260071 81.130203 813.666321 79.937531 812.468384 C 78.739609 811.275635 78.145798 809.249573 78.145798 806.38501 L 78.145798 796.759949 L 74.541672 796.759949 L 74.541672 791.57251 L 78.145798 791.57251 L 78.145798 785.13501 Z"/>
            </g>
        </g>
        <g id="g35">
            <g id="g36">
                <path id="path25" fill="#000000" stroke="none" d="M 120.120117 800.448425 L 120.120117 814.260437 L 112.8284 814.260437 L 112.8284 803.718811 C 112.8284 801.75 112.776306 800.395874 112.682556 799.65625 C 112.599213 798.90625 112.453369 798.354187 112.245056 797.989624 C 111.9534 797.520874 111.562759 797.151062 111.0784 796.885437 C 110.588806 796.625061 110.041946 796.489624 109.432526 796.489624 C 107.916931 796.489624 106.724258 797.083374 105.849197 798.260376 C 104.984604 799.427063 104.557526 801.041626 104.557526 803.09375 L 104.557526 814.260437 L 97.307526 814.260437 L 97.307526 782.739075 L 104.557526 782.739075 L 104.557526 794.905762 C 105.651276 793.572388 106.812729 792.593201 108.036728 791.968262 C 109.271103 791.343262 110.630463 791.030762 112.120056 791.030762 C 114.729401 791.030762 116.713806 791.838074 118.078461 793.447449 C 119.437805 795.046387 120.120056 797.3797 120.120056 800.447449 Z"/>
            </g>
        </g>
        <g id="g37">
            <g id="g38">
                <path id="path26" fill="#000000" stroke="none" d="M 149.484711 802.864563 L 149.484711 804.927063 L 132.526031 804.927063 C 132.703125 806.624939 133.322906 807.901062 134.380188 808.760437 C 135.432251 809.609375 136.906189 810.03125 138.796844 810.03125 C 140.322845 810.03125 141.885376 809.8125 143.484314 809.364563 C 145.078033 808.90625 146.723907 808.21875 148.421783 807.302063 L 148.421783 812.885376 C 146.697784 813.541626 144.973907 814.026001 143.255096 814.34375 C 141.546844 814.677124 139.83844 814.84375 138.130035 814.84375 C 134.015503 814.84375 130.822693 813.802124 128.546722 811.718689 C 126.281097 809.635376 125.150848 806.713501 125.150848 802.947876 C 125.150848 799.239624 126.260223 796.333374 128.484161 794.218689 C 130.718567 792.093628 133.796722 791.03125 137.713379 791.03125 C 141.281097 791.03125 144.135254 792.109375 146.275909 794.260437 C 148.411377 796.401123 149.484161 799.270874 149.484161 802.864563 Z M 142.026306 800.447876 C 142.026306 799.072937 141.620056 797.963501 140.817963 797.114563 C 140.026306 796.270813 138.974243 795.84375 137.672119 795.84375 C 136.265839 795.84375 135.130493 796.239563 134.255432 797.03125 C 133.380371 797.822876 132.828369 798.963501 132.609589 800.447876 Z"/>
            </g>
        </g>
        <g id="g39">
            <g id="g40">
                <path id="path27" fill="#000000" stroke="none" d="M 169.750031 784.031067 L 178.458313 784.031067 L 189.458313 804.760437 L 189.458313 784.031067 L 196.854156 784.031067 L 196.854156 814.260437 L 188.124969 814.260437 L 177.145752 793.511108 L 177.145752 814.260437 L 169.749908 814.260437 Z"/>
            </g>
        </g>
        <g id="g41">
            <g id="g42">
                <path id="path28" fill="#000000" stroke="none" d="M 214.921722 796.219116 C 213.322784 796.219116 212.098785 796.797241 211.255035 797.948303 C 210.406067 799.104553 209.984222 800.77124 209.984222 802.948303 C 209.984222 805.114929 210.406097 806.776428 211.255035 807.92749 C 212.098785 809.08374 213.322784 809.656677 214.921722 809.656677 C 216.505035 809.656677 217.71344 809.08374 218.546783 807.92749 C 219.390533 806.776428 219.817596 805.114929 219.817596 802.948303 C 219.817596 800.77124 219.390533 799.104553 218.546783 797.948303 C 217.71344 796.797241 216.505188 796.219116 214.921722 796.219116 Z M 214.921722 791.031616 C 218.822784 791.031616 221.869568 792.088928 224.067566 794.198303 C 226.260254 796.297241 227.359314 799.213867 227.359314 802.948303 C 227.359314 806.672302 226.260345 809.588928 224.067566 811.698303 C 221.86972 813.797241 218.822784 814.844116 214.921722 814.844116 C 211.005035 814.844116 207.942505 813.797241 205.734253 811.698303 C 203.536377 809.588928 202.442505 806.672302 202.442505 802.948303 C 202.442505 799.213867 203.536255 796.297241 205.734253 794.198303 C 207.942505 792.088989 211.005035 791.031616 214.921722 791.031616 Z"/>
            </g>
        </g>
        <g id="g43">
            <g id="g44">
                <path id="path29" fill="#000000" stroke="none" d="M 232.401031 805.427063 L 232.401031 791.572388 L 239.69278 791.572388 L 239.69278 793.843201 C 239.69278 795.082825 239.682373 796.629639 239.671936 798.489075 C 239.656311 800.338013 239.651123 801.572388 239.651123 802.197388 C 239.651123 804.020264 239.69278 805.332825 239.776123 806.134827 C 239.869843 806.942139 240.03653 807.525513 240.276093 807.884827 C 240.56778 808.358765 240.947998 808.728577 241.421936 808.989014 C 241.906311 809.239014 242.463623 809.364014 243.088623 809.364014 C 244.59903 809.364014 245.786469 808.791077 246.651154 807.634766 C 247.510529 806.46814 247.94281 804.853577 247.94281 802.78064 L 247.94281 791.572388 L 255.19281 791.572388 L 255.19281 814.260376 L 247.94281 814.260376 L 247.94281 810.989563 C 246.843842 812.3125 245.682404 813.281311 244.463623 813.90625 C 243.239655 814.53125 241.890686 814.84375 240.422028 814.84375 C 237.807495 814.84375 235.817871 814.046875 234.44281 812.447876 C 233.078278 810.838501 232.401215 808.5 232.401215 805.427063 Z"/>
            </g>
        </g>
        <g id="g45">
            <g id="g46">
                <path id="path30" fill="#000000" stroke="none" d="M 284.974304 800.448425 L 284.974304 814.260437 L 277.682556 814.260437 L 277.682556 803.697876 C 277.682556 801.739502 277.630463 800.395752 277.536713 799.65625 C 277.4534 798.90625 277.307556 798.354187 277.099213 797.989624 C 276.807556 797.520874 276.416931 797.151062 275.932556 796.885437 C 275.442963 796.625061 274.896118 796.489624 274.286682 796.489624 C 272.771088 796.489624 271.57843 797.083374 270.703369 798.260437 C 269.838776 799.427063 269.411682 801.041626 269.411682 803.09375 L 269.411682 814.260437 L 262.161682 814.260437 L 262.161682 791.572388 L 269.411682 791.572388 L 269.411682 794.905762 C 270.505432 793.572388 271.666901 792.593201 272.8909 791.968262 C 274.125275 791.343262 275.484619 791.030762 276.974213 791.030762 C 279.583557 791.030762 281.567963 791.838074 282.932617 793.447449 C 284.291962 795.046387 284.974213 797.379761 284.974213 800.447449 Z"/>
            </g>
        </g>
        <g id="g47">
            <g id="g48">
                <path id="path31" fill="#000000" stroke="none" d="M 306.468781 784.031067 L 319.40625 784.031067 C 323.249969 784.031067 326.203186 784.885254 328.260376 786.593628 C 330.328125 788.30188 331.364532 790.734253 331.364532 793.885376 C 331.364532 797.052002 330.328064 799.489502 328.260376 801.197876 C 326.203064 802.906128 323.249969 803.760437 319.40625 803.760437 L 314.260376 803.760437 L 314.260376 814.260437 L 306.468658 814.260437 Z M 314.260529 789.676941 L 314.260529 798.11438 L 318.573059 798.11438 C 320.083466 798.11438 321.250122 797.749817 322.073059 797.010254 C 322.906372 796.275879 323.323059 795.234253 323.323059 793.885193 C 323.323059 792.541443 322.906372 791.504883 322.073059 790.781067 C 321.250122 790.046692 320.083466 789.67688 318.573059 789.67688 Z"/>
            </g>
        </g>
        <g id="g49">
            <g id="g50">
                <path id="path32" fill="#000000" stroke="none" d="M 353.390625 797.760376 C 352.75 797.458313 352.119812 797.234375 351.494751 797.09375 C 350.869751 796.958313 350.234344 796.885376 349.598907 796.885376 C 347.734344 796.885376 346.296753 797.484375 345.286346 798.677124 C 344.286346 799.875061 343.786346 801.583435 343.786346 803.802246 L 343.786346 814.26062 L 336.536346 814.26062 L 336.536346 791.572632 L 343.786346 791.572632 L 343.786346 795.301819 C 344.71344 793.817383 345.786346 792.73407 346.994629 792.051819 C 348.202972 791.374756 349.650879 791.031006 351.348755 791.031006 C 351.58313 791.031006 351.838348 791.046631 352.119598 791.072632 C 352.411255 791.088257 352.827911 791.129944 353.369598 791.197632 Z"/>
            </g>
        </g>
        <g id="g51">
            <g id="g52">
                <path id="path33" fill="#000000" stroke="none" d="M 367.786285 796.219116 C 366.187347 796.219116 364.963348 796.797241 364.119629 797.948303 C 363.27066 799.104553 362.848785 800.77124 362.848785 802.948303 C 362.848785 805.114929 363.270691 806.776428 364.119629 807.92749 C 364.963379 809.08374 366.187347 809.656677 367.786285 809.656677 C 369.369629 809.656677 370.578003 809.08374 371.411377 807.92749 C 372.255127 806.776428 372.68219 805.114929 372.68219 802.948303 C 372.68219 800.77124 372.255127 799.104553 371.411377 797.948303 C 370.578003 796.797241 369.369751 796.219116 367.786285 796.219116 Z M 367.786285 791.031616 C 371.687378 791.031616 374.734131 792.088928 376.93219 794.198303 C 379.124817 796.297241 380.223877 799.213867 380.223877 802.948303 C 380.223877 806.672302 379.124939 809.588928 376.93219 811.698303 C 374.734314 813.797241 371.687378 814.844116 367.786285 814.844116 C 363.869629 814.844116 360.807098 813.797241 358.598816 811.698303 C 356.40097 809.588928 355.307098 806.672302 355.307098 802.948303 C 355.307098 799.213867 356.400848 796.297241 358.598816 794.198303 C 360.807098 792.088989 363.869629 791.031616 367.786285 791.031616 Z"/>
            </g>
        </g>
        <g id="g53">
            <g id="g54">
                <path id="path34" fill="#000000" stroke="none" d="M 385.489624 791.572388 L 392.739624 791.572388 L 392.739624 813.86438 C 392.739624 816.890381 392.010437 819.202942 390.552124 820.80188 C 389.09375 822.411255 386.979187 823.218506 384.218811 823.218506 L 380.635498 823.218506 L 380.635498 818.447754 L 381.885498 818.447754 C 383.260437 818.447754 384.203186 818.135254 384.718811 817.510254 C 385.229248 816.895691 385.489624 815.682129 385.489624 813.86438 Z M 385.489624 782.739075 L 392.739624 782.739075 L 392.739624 788.655762 L 385.489624 788.655762 Z"/>
            </g>
        </g>
        <g id="g55">
            <g id="g56">
                <path id="path35" fill="#000000" stroke="none" d="M 422.354492 802.864563 L 422.354492 804.927063 L 405.395813 804.927063 C 405.572937 806.624939 406.192688 807.901062 407.249939 808.760437 C 408.302063 809.609375 409.77594 810.03125 411.666626 810.03125 C 413.192627 810.03125 414.755188 809.8125 416.354126 809.364563 C 417.947815 808.90625 419.593689 808.21875 421.291565 807.302063 L 421.291565 812.885376 C 419.567566 813.541626 417.843689 814.026001 416.124878 814.34375 C 414.416626 814.677124 412.708252 814.84375 410.999817 814.84375 C 406.885315 814.84375 403.692505 813.802124 401.416504 811.718689 C 399.150879 809.635376 398.02063 806.713501 398.02063 802.947876 C 398.02063 799.239624 399.130005 796.333374 401.353943 794.218689 C 403.588379 792.093628 406.666504 791.03125 410.583191 791.03125 C 414.150879 791.03125 417.005005 792.109375 419.145691 794.260437 C 421.281189 796.401123 422.353943 799.270874 422.353943 802.864563 Z M 414.896118 800.447876 C 414.896118 799.072937 414.489868 797.963501 413.687744 797.114563 C 412.896118 796.270813 411.844055 795.84375 410.541931 795.84375 C 409.13562 795.84375 408.000305 796.239563 407.125244 797.03125 C 406.250183 797.822876 405.698181 798.963501 405.47937 800.447876 Z"/>
            </g>
        </g>
        <g id="g57">
            <g id="g58">
                <path id="path36" fill="#000000" stroke="none" d="M 446.176575 792.281738 L 446.176575 798.198425 C 445.187012 797.521362 444.197388 797.021362 443.197388 796.698425 C 442.207825 796.380737 441.181763 796.219238 440.114075 796.219238 C 438.09845 796.219238 436.520325 796.812988 435.384827 797.990051 C 434.259827 799.172363 433.697388 800.823364 433.697388 802.948425 C 433.697388 805.062988 434.259888 806.708862 435.384827 807.885925 C 436.520264 809.068237 438.09845 809.656738 440.114075 809.656738 C 441.249451 809.656738 442.327637 809.490051 443.343262 809.156738 C 444.369263 808.823364 445.312073 808.323364 446.176575 807.656738 L 446.176575 813.594177 C 445.03595 814.010864 443.884827 814.323364 442.718201 814.531677 C 441.551514 814.73999 440.384827 814.844177 439.218201 814.844177 C 435.119263 814.844177 431.916077 813.797302 429.614075 811.698303 C 427.306702 809.604553 426.15564 806.687927 426.15564 802.948303 C 426.15564 799.198303 427.306702 796.276428 429.614075 794.17749 C 431.916199 792.08374 435.119263 791.031616 439.218201 791.031616 C 440.395264 791.031616 441.56189 791.135803 442.718201 791.344116 C 443.869202 791.55249 445.020325 791.86499 446.176575 792.281616 Z"/>
            </g>
        </g>
        <g id="g59">
            <g id="g60">
                <path id="path37" fill="#000000" stroke="none" d="M 460.348999 785.135071 L 460.348999 791.572571 L 467.828186 791.572571 L 467.828186 796.76001 L 460.348999 796.76001 L 460.348999 806.385071 C 460.348999 807.442383 460.557312 808.155884 460.973999 808.530945 C 461.401062 808.895508 462.234436 809.072632 463.473999 809.072632 L 467.203186 809.072632 L 467.203186 814.260071 L 460.973999 814.260071 C 458.109436 814.260071 456.083313 813.666321 454.890686 812.468384 C 453.692749 811.275635 453.098938 809.249573 453.098938 806.38501 L 453.098938 796.759949 L 449.494812 796.759949 L 449.494812 791.57251 L 453.098938 791.57251 L 453.098938 785.13501 Z"/>
            </g>
        </g>
    </g>
</svg>
